<?xml version="1.0" standalone="no"?>
<!DOCTYPE svg PUBLIC "-//W3C//DTD SVG 20010904//EN"
 "http://www.w3.org/TR/2001/REC-SVG-20010904/DTD/svg10.dtd">
<svg version="1.0" xmlns="http://www.w3.org/2000/svg"
 width="493pt" height="333pt" viewBox="292 142 493 333"
 preserveAspectRatio="xMidYMid meet">
<metadata>
Created by potrace 1.16, written by Peter Selinger 2001-2019
</metadata>
<g transform="translate(0.000000,680.000000) scale(0.100000,-0.100000)"
fill="#ffffff" stroke="none">
<path d="M5789 5273 c-25 -16 -54 -33 -65 -40 -10 -6 -55 -33 -99 -60 -44 -26
-87 -52 -96 -58 -9 -5 -34 -20 -55 -33 -22 -12 -57 -34 -79 -47 -22 -14 -47
-28 -55 -32 -8 -4 -29 -16 -46 -28 -17 -11 -49 -31 -72 -45 -48 -29 -51 -44
-18 -92 13 -19 41 -65 62 -102 45 -77 48 -83 114 -191 27 -44 75 -124 107
-178 32 -54 67 -114 78 -132 75 -125 102 -171 120 -200 11 -18 37 -62 58 -97
41 -68 45 -75 97 -157 19 -31 41 -67 47 -81 7 -14 22 -38 32 -55 11 -16 39
-63 63 -104 24 -40 52 -88 63 -107 11 -18 36 -59 55 -91 60 -101 13 -93 525
-90 519 2 486 -6 412 105 -24 37 -57 89 -73 115 -16 27 -39 65 -51 85 -12 21
-26 44 -30 52 -16 30 -99 166 -130 215 -18 27 -33 55 -33 61 0 6 -7 17 -16 24
-8 8 -22 27 -30 44 -7 17 -23 45 -34 61 -19 30 -48 79 -83 139 -10 17 -26 45
-37 61 -11 17 -29 46 -40 65 -11 19 -32 53 -45 75 -13 22 -29 49 -35 60 -6 11
-24 40 -40 65 -16 25 -36 59 -45 75 -8 17 -24 44 -35 60 -11 17 -29 46 -40 65
-11 19 -32 53 -45 75 -14 22 -42 69 -62 103 -21 35 -48 80 -60 100 -12 21 -25
44 -29 52 -4 8 -24 40 -43 70 -20 30 -42 66 -49 80 -21 42 -38 69 -54 87 -8
10 -18 26 -21 36 -9 24 -36 21 -88 -10z"/>
<path d="M4959 4541 c-13 -10 -49 -33 -79 -50 -30 -18 -62 -36 -70 -42 -23
-15 -188 -115 -258 -156 -35 -21 -80 -48 -100 -60 -21 -12 -49 -27 -63 -33
-44 -18 -52 -52 -24 -95 14 -19 32 -48 40 -63 9 -15 26 -44 38 -64 12 -20 48
-81 80 -135 32 -54 78 -129 102 -168 52 -82 56 -90 115 -190 25 -43 55 -94 67
-114 12 -20 26 -45 31 -56 6 -12 17 -27 26 -34 12 -11 16 -33 16 -102 0 -111
6 -119 101 -119 95 0 114 18 105 101 -9 94 -29 89 370 89 l344 0 0 29 c0 16
-7 34 -15 41 -9 7 -32 42 -53 77 -20 36 -44 75 -52 88 -8 13 -44 72 -78 132
-35 59 -92 155 -127 213 -35 58 -81 134 -102 168 -21 35 -47 79 -58 97 -11 18
-38 63 -60 100 -22 37 -49 82 -60 100 -11 18 -38 63 -60 100 -22 36 -46 78
-54 93 -36 70 -77 88 -122 53z"/>
<path d="M4145 3820 c-3 -5 -35 -26 -71 -47 -36 -21 -81 -47 -99 -58 -59 -35
-166 -99 -201 -120 -18 -11 -66 -40 -106 -65 -40 -25 -84 -51 -98 -58 -77 -41
-73 -74 20 -195 l22 -27 451 2 452 3 3 23 c2 13 -5 34 -15 45 -11 12 -25 33
-31 47 -7 14 -22 42 -35 62 -23 38 -89 148 -110 183 -6 11 -28 46 -49 78 -21
32 -38 62 -38 67 0 36 -79 86 -95 60z"/>
<path d="M7527 3304 c-10 -11 3 -24 24 -24 10 0 19 7 19 15 0 15 -31 21 -43 9z"/>
<path d="M7585 3246 c-23 -16 -13 -46 15 -46 15 0 20 7 20 24 0 31 -12 39 -35
22z"/>
<path d="M4608 3239 c-16 -9 -18 -27 -18 -149 l0 -140 -29 0 c-16 0 -51 9 -78
21 -94 41 -264 20 -357 -45 -272 -190 -255 -570 33 -732 110 -61 247 -69 347
-18 48 24 53 25 80 11 44 -22 148 -28 173 -10 32 22 33 1046 2 1063 -25 13
-131 13 -153 -1z m-141 -464 c141 -89 164 -253 52 -370 -144 -151 -399 -45
-399 167 0 170 208 291 347 203z"/>
<path d="M5843 3242 c-9 -5 -13 -51 -15 -147 -3 -163 -5 -165 -104 -125 -101
41 -244 25 -349 -40 -70 -43 -175 -165 -175 -204 0 -8 -7 -30 -15 -49 -9 -21
-15 -67 -15 -107 0 -40 6 -86 15 -107 8 -19 15 -42 15 -51 0 -8 16 -39 35 -68
117 -175 347 -251 511 -168 49 25 53 25 82 10 38 -20 167 -22 178 -4 5 7 9
244 9 526 2 507 1 513 -19 528 -22 15 -132 19 -153 6z m-138 -467 c137 -79
164 -253 56 -368 -111 -117 -288 -91 -374 55 -113 193 122 425 318 313z"/>
<path d="M7522 3148 c2 -12 10 -23 18 -23 22 0 19 39 -3 43 -15 3 -18 -1 -15
-20z"/>
<path d="M7654 3146 c-13 -10 -16 -18 -8 -25 7 -8 16 -7 30 3 13 10 16 18 8
25 -7 8 -16 7 -30 -3z"/>
<path d="M3370 2990 c-276 -44 -434 -316 -336 -576 79 -213 352 -334 539 -240
l52 27 49 -22 c60 -26 149 -20 166 11 15 29 13 753 -2 768 -16 16 -138 15
-178 -2 -30 -12 -39 -11 -89 9 -67 26 -139 35 -201 25z m168 -217 c102 -60
141 -158 111 -278 -20 -81 -137 -165 -229 -165 -93 0 -211 102 -225 195 -29
198 176 346 343 248z"/>
<path d="M4965 2990 l-80 -5 -3 -397 c-2 -337 0 -399 12 -411 16 -15 169 -17
184 -2 8 8 15 760 8 791 -7 27 -22 30 -121 24z"/>
<path d="M6465 2993 c-50 -8 -145 -43 -179 -66 -45 -31 -126 -109 -126 -122 0
-6 -8 -22 -17 -35 -75 -106 -67 -309 16 -432 122 -179 373 -252 526 -152 25
16 28 16 70 -5 50 -25 151 -24 170 2 17 23 11 767 -6 778 -15 10 -132 6 -187
-6 -22 -5 -48 -1 -85 13 -55 22 -133 33 -182 25z m154 -215 c112 -67 156 -178
113 -288 -46 -121 -177 -185 -292 -143 -164 60 -215 270 -92 385 77 73 193 93
271 46z"/>
<path d="M7265 2992 c-164 -61 -242 -184 -200 -310 37 -109 100 -145 339 -198
144 -31 189 -80 125 -134 -65 -53 -200 -47 -254 13 -16 18 -35 42 -40 52 -9
15 -24 18 -99 18 -99 0 -107 -6 -99 -62 35 -239 536 -298 686 -82 35 52 37 58
37 136 0 145 -66 196 -320 250 -142 30 -193 70 -164 126 17 34 31 39 115 39
72 0 129 -25 129 -56 0 -40 159 -64 205 -30 49 36 -32 166 -135 214 -57 26
-274 42 -325 24z"/>
</g>
</svg>
