<?xml version="1.0" standalone="no"?>
<!DOCTYPE svg PUBLIC "-//W3C//DTD SVG 20010904//EN"
 "http://www.w3.org/TR/2001/REC-SVG-20010904/DTD/svg10.dtd">
<svg version="1.0" xmlns="http://www.w3.org/2000/svg"
 width="805pt" height="271pt" viewBox="126 218 805 271"
 preserveAspectRatio="xMidYMid meet">
<metadata>
Created by potrace 1.16, written by Peter Selinger 2001-2019
</metadata>
<g transform="translate(0.000000,680.000000) scale(0.100000,-0.100000)"
fill="#ffffff" stroke="none">
<path d="M7091 4527 c-41 -13 -91 -78 -91 -119 0 -72 48 -119 122 -120 99 -1
132 31 131 125 -1 89 -76 142 -162 114z"/>
<path d="M5968 4500 c-20 -16 -20 -26 -19 -465 2 -550 8 -584 116 -684 59 -54
98 -70 178 -74 88 -3 97 7 97 97 0 85 -3 89 -60 114 -102 44 -101 39 -102 554
0 309 -4 442 -12 452 -18 22 -172 28 -198 6z"/>
<path d="M2355 4491 c-108 -24 -260 -77 -315 -109 -25 -15 -61 -34 -80 -43
-19 -9 -41 -23 -49 -32 -7 -10 -19 -17 -26 -17 -8 0 -26 -11 -42 -24 -15 -13
-38 -26 -50 -30 -12 -4 -24 -15 -28 -24 -3 -9 -40 -54 -83 -99 -42 -45 -90
-100 -107 -123 -16 -22 -39 -53 -51 -68 -11 -15 -26 -47 -33 -72 -7 -25 -25
-67 -38 -94 -65 -127 -113 -323 -113 -455 0 -75 37 -321 51 -335 5 -6 9 -17 9
-25 0 -12 29 -83 104 -251 20 -45 75 -133 88 -141 5 -4 15 -17 22 -30 13 -27
43 -37 60 -19 8 9 2 20 -27 45 -34 29 -36 35 -27 59 13 36 14 33 -21 52 -40
20 -21 51 21 36 19 -7 35 -3 69 14 24 13 52 24 61 24 10 0 43 12 74 26 51 23
59 24 74 12 9 -8 25 -18 35 -21 9 -4 22 -18 29 -32 6 -14 17 -25 25 -25 22 0
27 31 9 59 -9 14 -26 45 -36 69 -11 23 -26 45 -34 48 -9 3 -18 22 -22 42 -4
21 -13 44 -20 52 -65 75 -64 434 2 547 13 23 24 47 24 53 0 55 188 263 280
310 21 11 40 26 43 33 3 8 21 17 41 21 19 4 55 15 79 26 153 68 484 31 600
-66 16 -13 32 -24 37 -24 17 0 205 -183 217 -210 6 -16 23 -36 36 -45 14 -9
28 -27 31 -41 4 -14 22 -48 41 -76 19 -28 35 -56 35 -62 0 -12 101 -178 138
-226 10 -14 43 -73 72 -133 29 -59 56 -110 61 -113 5 -2 17 -25 28 -49 22 -50
69 -122 108 -163 32 -34 93 -126 93 -139 0 -6 7 -17 17 -24 9 -8 33 -36 53
-64 41 -55 269 -285 283 -285 5 0 23 -10 39 -22 29 -20 93 -55 183 -101 22
-11 47 -26 55 -32 8 -7 33 -16 55 -19 22 -4 67 -15 100 -25 81 -25 231 -37
250 -21 22 18 22 482 1 499 -8 6 -40 16 -72 21 -120 20 -278 94 -334 158 -8
10 -30 28 -49 41 -18 13 -49 49 -69 80 -19 31 -59 84 -88 118 -30 33 -54 66
-54 71 0 6 -11 23 -24 39 -13 15 -31 44 -40 63 -9 19 -34 67 -56 105 -22 39
-47 84 -54 100 -8 17 -24 42 -35 57 -12 15 -30 46 -41 70 -10 24 -30 58 -44
77 -15 19 -26 40 -26 47 0 7 -11 25 -24 41 -13 15 -29 46 -36 68 -11 37 -28
68 -74 135 -9 14 -29 44 -45 68 -104 155 -333 385 -421 424 -25 11 -58 30 -75
42 -42 32 -194 100 -290 129 -160 50 -425 62 -580 28z"/>
<path d="M6474 4386 c-16 -12 -19 -25 -16 -86 3 -84 -11 -114 -56 -123 -38 -8
-56 -50 -50 -117 6 -59 21 -80 59 -80 42 0 46 -17 52 -235 6 -218 11 -245 59
-322 49 -77 121 -127 207 -142 128 -23 161 -5 161 86 0 90 -19 123 -71 123
-101 0 -126 55 -134 290 -4 99 -3 171 3 179 6 8 40 16 84 21 99 9 98 8 98 95
0 93 -10 105 -88 105 -89 0 -102 14 -102 110 0 103 -7 110 -109 110 -51 0 -84
-5 -97 -14z"/>
<path d="M7840 4190 c-199 -44 -344 -194 -367 -380 -40 -325 155 -549 477
-550 130 0 257 37 304 89 26 28 8 68 -52 121 -51 46 -75 49 -134 19 -59 -30
-193 -24 -255 11 -104 58 -156 226 -103 335 11 22 19 45 20 52 0 13 71 73 108
92 49 26 143 24 211 -3 84 -34 80 -34 150 24 89 74 83 104 -32 154 -91 41
-235 56 -327 36z"/>
<path d="M8653 4189 c-147 -29 -316 -196 -335 -332 -16 -110 -5 -276 21 -330
36 -74 125 -168 194 -205 172 -92 464 -81 584 23 41 36 37 55 -30 128 -39 42
-61 45 -115 18 -48 -24 -154 -33 -248 -21 -88 11 -140 46 -170 112 -30 68 -29
68 323 68 376 0 361 -7 332 169 -44 274 -273 426 -556 370z m223 -204 c70 -37
96 -69 92 -114 l-3 -36 -180 -6 c-198 -6 -228 0 -233 42 -4 30 83 125 120 132
73 14 156 6 204 -18z"/>
<path d="M5062 4164 c-83 -31 -168 -87 -186 -122 -8 -16 -22 -35 -31 -42 -65
-54 -114 -344 -67 -403 5 -6 12 -29 16 -49 7 -37 51 -99 118 -166 138 -136
417 -150 561 -27 52 44 57 44 125 -9 78 -60 93 -66 164 -68 86 -3 88 -1 88 93
0 84 -17 119 -57 119 -25 1 -67 39 -89 80 -17 31 -19 64 -20 308 -2 197 -6
277 -14 287 -24 29 -149 20 -182 -12 l-28 -27 -94 32 c-118 40 -209 42 -304 6z
m292 -208 c99 -58 138 -182 100 -318 -30 -105 -99 -153 -224 -153 -206 0 -297
171 -212 396 10 24 37 46 116 92 44 26 163 17 220 -17z"/>
<path d="M7063 4179 c-42 -15 -44 -35 -40 -322 4 -303 13 -369 59 -440 64
-100 199 -164 293 -138 58 15 55 189 -3 207 -117 36 -122 50 -122 390 0 245
-2 272 -17 286 -21 18 -137 29 -170 17z"/>
<path d="M2067 2664 c-11 -11 3 -24 24 -24 12 0 19 5 17 13 -5 14 -31 21 -41
11z"/>
<path d="M1810 2630 c0 -5 9 -10 21 -10 11 0 17 5 14 10 -3 6 -13 10 -21 10
-8 0 -14 -4 -14 -10z"/>
<path d="M1705 2574 c-23 -24 -13 -39 26 -39 30 0 34 3 37 28 4 32 -35 39 -63
11z"/>
<path d="M1690 2461 c0 -23 28 -54 41 -45 5 3 0 19 -11 35 -25 34 -30 36 -30
10z"/>
</g>
</svg>
