<?xml version="1.0" standalone="no"?>
<!DOCTYPE svg PUBLIC "-//W3C//DTD SVG 20010904//EN"
 "http://www.w3.org/TR/2001/REC-SVG-20010904/DTD/svg10.dtd">
<svg version="1.0" xmlns="http://www.w3.org/2000/svg"
 width="685pt" height="228pt" viewBox="200 221 685 228"
 preserveAspectRatio="xMidYMid meet">
<metadata>
Created by potrace 1.16, written by Peter Selinger 2001-2019
</metadata>
<g transform="translate(0.000000,680.000000) scale(0.100000,-0.100000)"
fill="#ffffff" stroke="none">
<path d="M7150 4487 c-47 -12 -114 -38 -149 -57 -70 -38 -208 -161 -231 -206
-8 -16 -22 -40 -32 -54 -9 -14 -30 -61 -45 -105 l-28 -80 -3 -682 c-2 -443 1
-696 7 -720 16 -59 67 -121 125 -151 l51 -27 685 0 c745 0 741 0 860 57 167
80 264 179 340 348 l25 55 3 734 3 733 -22 45 c-25 53 -95 107 -156 122 -27 7
-266 11 -695 10 -638 0 -655 -1 -738 -22z m1399 -184 l22 -18 -3 -670 -3 -670
-24 -60 c-50 -124 -161 -231 -281 -271 -65 -21 -1310 -35 -1363 -15 l-27 11 0
669 c0 747 -3 711 71 831 30 48 110 130 126 130 6 0 21 9 34 19 74 58 99 60
790 60 592 1 638 0 658 -16z"/>
<path d="M7285 4071 c-171 -43 -233 -235 -119 -370 139 -165 430 -20 390 194
-22 113 -161 203 -271 176z"/>
<path d="M7957 4060 c-47 -9 -36 3 -145 -161 -49 -75 -99 -150 -109 -165 -11
-16 -35 -52 -54 -81 -19 -28 -124 -185 -234 -348 -291 -432 -292 -432 -277
-447 12 -12 325 -15 359 -4 16 5 97 121 284 403 8 11 50 74 95 140 44 65 100
147 124 183 55 83 57 87 179 267 56 84 107 155 112 158 15 10 10 52 -7 59 -22
8 -280 5 -327 -4z"/>
<path d="M8025 3272 c-102 -33 -171 -171 -140 -279 51 -179 263 -225 383 -85
l47 55 0 92 0 93 -40 47 c-65 77 -159 106 -250 77z"/>
<path d="M2107 4281 c-6 -2 -15 -9 -19 -15 -12 -17 -10 -1600 2 -1630 l10 -26
342 1 c189 0 363 4 388 9 25 5 70 14 100 20 79 17 245 102 316 163 131 111
249 291 274 414 5 26 14 64 20 83 18 62 12 253 -11 343 -74 293 -301 528 -589
611 -82 24 -97 24 -453 28 -202 2 -373 1 -380 -1z m728 -414 c66 -18 128 -58
190 -122 244 -250 105 -661 -244 -722 -120 -21 -268 -15 -287 11 -11 16 -14
90 -14 416 0 417 1 422 45 434 35 9 258 -3 310 -17z"/>
<path d="M4075 3969 c-49 -22 -124 -54 -165 -70 -41 -17 -86 -38 -100 -49
l-25 -19 -3 -584 c-1 -372 1 -594 8 -611 l10 -26 194 0 c183 0 196 1 206 19
15 30 14 1353 -2 1369 -17 17 -22 16 -123 -29z"/>
<path d="M4965 3982 c-415 -106 -636 -537 -489 -957 9 -27 23 -57 29 -65 7 -8
20 -30 29 -47 26 -52 131 -157 209 -210 116 -79 206 -106 357 -107 152 -1 216
17 342 100 46 30 91 54 100 54 10 0 73 -27 141 -60 139 -67 142 -68 157 -41
13 25 14 604 1 716 -10 81 -50 218 -70 238 -6 6 -11 16 -11 22 0 33 -132 183
-215 244 -151 112 -396 160 -580 113z m302 -417 c120 -60 173 -145 173 -280 0
-392 -587 -412 -617 -21 -12 146 98 305 227 329 83 15 147 7 217 -28z"/>
</g>
</svg>
