<?xml version="1.0" standalone="no"?>
<!DOCTYPE svg PUBLIC "-//W3C//DTD SVG 20010904//EN"
 "http://www.w3.org/TR/2001/REC-SVG-20010904/DTD/svg10.dtd">
<svg version="1.0" xmlns="http://www.w3.org/2000/svg"
 width="677pt" height="98pt" viewBox="201 291 677 98"
 preserveAspectRatio="xMidYMid meet">
<metadata>
Created by potrace 1.16, written by Peter Selinger 2001-2019
</metadata>
<g transform="translate(0.000000,680.000000) scale(0.100000,-0.100000)"
fill="#ffffff" stroke="none">
<path d="M7255 3799 c-103 -24 -197 -63 -213 -88 -9 -14 -22 -30 -29 -34 -7
-4 -20 -22 -29 -39 -9 -18 -24 -39 -34 -47 -23 -20 -43 -172 -33 -251 22 -192
177 -327 387 -338 125 -6 238 10 306 45 78 40 158 118 171 168 6 22 16 50 22
63 16 34 -3 42 -100 42 -77 0 -83 -2 -100 -25 -99 -140 -119 -151 -255 -141
-107 7 -131 19 -183 87 -38 50 -40 57 -44 136 -4 101 25 194 68 220 14 9 44
28 65 42 35 23 49 26 126 26 86 0 87 0 143 -43 31 -23 57 -47 57 -52 0 -32 41
-50 111 -50 141 0 144 44 12 176 -92 92 -293 138 -448 103z"/>
<path d="M2110 3770 c-19 -19 -20 -33 -20 -369 0 -399 -7 -371 94 -376 94 -4
98 3 97 153 -2 161 -14 152 221 153 208 1 202 0 217 53 26 96 1 107 -233 104
-202 -3 -214 1 -201 70 3 19 1 39 -5 47 -19 23 19 29 239 32 238 3 241 4 241
67 0 89 10 86 -331 86 -286 0 -300 -1 -319 -20z"/>
<path d="M3107 3775 c-46 -16 -60 -33 -88 -105 -11 -30 -27 -62 -35 -71 -8 -8
-20 -37 -28 -63 -8 -26 -26 -65 -40 -87 -14 -21 -26 -44 -26 -51 0 -12 -19
-51 -64 -133 -9 -16 -16 -37 -16 -45 0 -8 -16 -40 -35 -70 -61 -94 -39 -137
65 -127 77 9 97 22 116 79 24 73 36 78 199 78 165 0 196 -11 216 -79 18 -59
40 -74 115 -79 108 -7 125 22 70 122 -18 34 -36 75 -40 91 -4 17 -16 39 -26
50 -9 11 -23 38 -30 60 -22 72 -200 424 -220 435 -26 14 -87 12 -133 -5z m88
-299 c42 -100 24 -146 -57 -146 -71 0 -83 60 -30 153 24 41 68 38 87 -7z"/>
<path d="M3712 3774 l-22 -15 0 -359 c0 -412 -8 -380 99 -380 87 0 91 7 91
144 0 144 -7 139 157 134 191 -6 200 -14 202 -180 1 -83 16 -94 117 -94 l79 1
-4 124 c-3 117 -5 127 -32 170 -37 57 -36 69 5 117 89 104 63 258 -52 318 -72
37 -592 54 -640 20z m463 -145 c56 -14 76 -37 77 -88 1 -73 -20 -81 -219 -87
-145 -4 -148 -2 -156 108 l-5 67 42 4 c92 8 220 6 261 -4z"/>
<path d="M4607 3772 c-20 -22 -26 -686 -7 -722 14 -26 130 -39 163 -17 21 14
22 21 22 139 0 166 -9 158 174 159 191 1 229 7 254 41 23 31 18 62 -13 96 -21
22 -26 23 -207 21 -202 -1 -201 -2 -204 56 -4 98 -11 95 236 95 158 0 215 3
222 13 21 25 25 87 8 113 l-15 24 -309 0 c-286 0 -309 -1 -324 -18z"/>
<path d="M5379 3773 c-11 -13 -15 -88 -17 -369 l-3 -353 23 -14 c18 -11 86
-14 328 -15 353 -2 353 -2 358 69 5 73 3 74 -257 77 -261 3 -261 3 -261 94 0
70 18 76 238 72 204 -4 212 0 212 86 0 67 -3 68 -225 68 l-190 1 -22 26 c-22
25 -23 76 -3 98 17 19 95 27 270 26 245 -1 240 -2 240 72 0 55 -2 60 -26 69
-49 19 -649 13 -665 -7z"/>
<path d="M6176 3777 c-14 -10 -17 -25 -14 -72 l3 -60 112 -5 c160 -7 148 18
148 -314 1 -322 -4 -306 97 -302 100 3 96 -11 97 308 1 326 -9 303 131 303
113 0 118 3 126 71 11 87 23 84 -355 84 -250 0 -331 -3 -345 -13z"/>
<path d="M7936 3767 l-22 -22 3 -330 c2 -182 5 -340 8 -351 10 -42 129 -60
164 -25 17 17 19 35 20 142 0 96 3 125 15 137 25 25 299 28 346 4 l34 -17 -1
-119 c-2 -152 11 -172 105 -161 86 10 82 -9 82 385 0 400 5 380 -93 380 -87 0
-100 -23 -93 -161 6 -144 13 -139 -185 -142 -219 -5 -214 -8 -210 160 2 91 0
104 -18 122 -31 31 -123 30 -155 -2z"/>
</g>
</svg>
