<?xml version="1.0" standalone="no"?>
<!DOCTYPE svg PUBLIC "-//W3C//DTD SVG 20010904//EN"
 "http://www.w3.org/TR/2001/REC-SVG-20010904/DTD/svg10.dtd">
<svg version="1.0" xmlns="http://www.w3.org/2000/svg"
 width="661pt" height="210pt" viewBox="212 205 661 210"
 preserveAspectRatio="xMidYMid meet">
<metadata>
Created by potrace 1.16, written by Peter Selinger 2001-2019
</metadata>
<g transform="translate(0.000000,680.000000) scale(0.100000,-0.100000)"
fill="#ffffff" stroke="none">
<path d="M2945 4659 c-327 -31 -535 -223 -535 -493 0 -70 -12 -80 -106 -81
-98 -2 -99 -4 -99 -130 0 -125 1 -126 98 -129 117 -2 107 48 107 -526 0 -461
1 -498 18 -513 27 -24 334 -29 358 -5 15 15 17 60 15 512 -2 344 1 501 9 516
15 28 615 30 650 2 21 -17 21 -24 21 -502 -1 -375 2 -491 12 -510 l13 -25 174
-3 c168 -3 176 -2 193 19 15 19 17 54 17 406 l0 384 25 44 c37 62 112 128 193
169 102 51 292 69 400 37 114 -34 188 -91 236 -181 l40 -75 7 -385 c4 -212 10
-393 14 -402 6 -16 24 -18 174 -18 235 0 211 -53 205 447 -5 465 -11 557 -43
601 -11 17 -21 35 -21 42 0 27 -127 135 -196 166 -38 18 -87 40 -109 50 -84
38 -380 56 -552 34 -133 -17 -246 -64 -301 -124 -58 -64 -71 -53 -84 74 l-3
25 -524 3 c-367 1 -528 6 -538 13 -19 16 -16 109 5 155 43 95 71 120 162 148
205 63 426 6 480 -125 20 -48 61 -59 227 -59 195 0 199 3 162 112 -85 252
-420 374 -904 327z"/>
<path d="M5850 4110 c-250 -20 -423 -122 -510 -300 -70 -147 -62 -154 167
-151 182 3 187 4 211 61 42 102 142 156 347 185 44 6 192 -23 240 -47 17 -8
42 -18 57 -22 16 -4 42 -26 64 -54 49 -65 47 -139 -7 -183 -42 -34 -77 -39
-689 -100 -262 -25 -322 -45 -406 -128 -62 -61 -82 -197 -50 -333 14 -59 94
-158 128 -158 8 0 25 -11 38 -25 13 -14 33 -25 45 -25 12 0 54 -11 94 -25 131
-44 379 -57 501 -25 119 31 190 55 266 92 104 49 118 46 122 -30 4 -75 10 -77
202 -76 133 1 165 4 178 17 17 18 18 83 4 677 l-7 325 -30 48 c-38 62 -127
157 -146 157 -8 0 -24 6 -35 14 -53 37 -211 88 -299 96 -144 14 -382 19 -485
10z m601 -740 c37 -20 21 -138 -30 -217 -45 -71 -71 -91 -201 -154 l-85 -42
-123 1 c-104 1 -131 5 -164 22 -21 11 -43 20 -49 20 -33 0 -109 65 -125 106
-33 87 45 184 148 184 18 0 69 7 113 14 44 8 130 17 190 20 136 8 244 25 270
43 23 16 31 16 56 3z"/>
<path d="M7635 4079 c-44 -4 -92 -12 -108 -18 -15 -6 -58 -16 -94 -21 -37 -6
-72 -15 -78 -20 -5 -4 -29 -13 -51 -19 -23 -6 -58 -22 -78 -36 -20 -14 -49
-31 -65 -40 -65 -33 -186 -191 -197 -255 -3 -19 -12 -47 -20 -62 -16 -30 -21
-310 -5 -350 5 -13 16 -48 25 -79 15 -52 27 -72 103 -170 55 -70 278 -209 337
-209 12 0 47 -7 76 -16 318 -95 793 -32 987 130 21 17 50 40 66 49 15 10 27
26 27 36 0 11 11 32 24 48 50 60 69 120 44 141 -10 8 -283 18 -359 13 -9 -1
-31 -16 -50 -34 -120 -116 -175 -144 -318 -160 -92 -10 -125 -8 -280 22 -56
11 -158 73 -195 119 -11 13 -27 32 -37 41 -27 25 -69 165 -69 230 0 256 213
421 530 409 152 -6 222 -32 318 -122 76 -69 70 -67 281 -64 210 4 213 6 166
95 -54 101 -159 199 -265 247 -19 9 -42 20 -50 25 -25 15 -229 60 -320 71 -95
11 -227 11 -345 -1z"/>
</g>
</svg>
