<?xml version="1.0" standalone="no"?>
<!DOCTYPE svg PUBLIC "-//W3C//DTD SVG 20010904//EN"
 "http://www.w3.org/TR/2001/REC-SVG-20010904/DTD/svg10.dtd">
<svg version="1.0" xmlns="http://www.w3.org/2000/svg"
 width="753pt" height="361pt" viewBox="164 164 753 361"
 preserveAspectRatio="xMidYMid meet">
<metadata>
Created by potrace 1.16, written by Peter Selinger 2001-2019
</metadata>
<g transform="translate(0.000000,680.000000) scale(0.100000,-0.100000)"
fill="#ffffff" stroke="none">
<path d="M3265 5070 c-127 -20 -194 -34 -243 -51 -30 -10 -64 -19 -75 -19 -12
-1 -40 -9 -62 -20 -22 -11 -46 -19 -53 -20 -18 0 -233 -105 -277 -135 -20 -14
-38 -25 -42 -25 -3 0 -18 -10 -33 -22 -15 -13 -37 -30 -50 -38 -100 -67 -234
-195 -333 -320 -84 -105 -78 -97 -107 -145 -44 -70 -49 -79 -69 -121 -11 -23
-24 -45 -30 -48 -6 -4 -11 -18 -11 -30 0 -13 -6 -29 -14 -35 -8 -7 -18 -27
-22 -44 -4 -18 -15 -48 -25 -67 -11 -19 -19 -46 -19 -60 -1 -14 -9 -43 -20
-65 -11 -22 -19 -59 -20 -81 0 -23 -8 -61 -17 -85 -25 -66 -25 -494 0 -558 9
-24 17 -62 17 -85 1 -22 9 -59 20 -81 11 -22 19 -50 20 -63 0 -12 9 -40 20
-62 11 -22 20 -46 20 -55 0 -9 9 -33 19 -53 11 -20 24 -48 30 -62 6 -14 22
-43 36 -65 13 -22 28 -49 33 -60 49 -103 285 -379 397 -463 76 -56 111 -82
121 -91 6 -5 24 -16 40 -25 16 -9 43 -25 59 -36 42 -27 233 -120 248 -120 7
-1 30 -9 52 -20 22 -11 49 -19 60 -20 11 0 47 -9 80 -19 162 -52 499 -79 638
-51 28 6 81 15 117 21 99 16 270 67 365 109 62 28 146 70 190 96 22 13 54 31
70 40 107 59 347 283 430 399 11 16 25 33 30 39 30 32 114 173 160 266 15 30
35 72 46 92 10 20 19 47 19 60 0 13 9 37 20 53 11 17 20 44 20 60 0 17 9 57
19 90 42 129 60 395 37 542 -9 55 -16 119 -16 141 0 23 -9 64 -20 92 -11 28
-20 62 -20 76 0 14 -9 42 -20 64 -11 22 -20 50 -20 63 0 13 -9 34 -20 47 -11
13 -20 32 -20 42 0 11 -9 31 -20 45 -11 14 -20 34 -20 44 0 10 -5 21 -11 25
-6 3 -18 22 -26 41 -8 19 -18 40 -24 47 -5 6 -24 34 -42 61 -17 28 -44 64 -60
80 -15 17 -34 41 -42 55 -14 27 -218 227 -279 274 -155 120 -398 245 -571 291
-117 32 -205 51 -305 65 -68 10 -308 10 -375 0z m144 -69 c17 -11 24 -446 8
-468 -12 -17 -1122 -19 -1132 -3 -8 13 73 87 164 152 36 26 71 51 76 55 35 29
251 143 271 143 9 0 28 7 42 15 37 20 174 65 199 65 11 0 40 7 64 16 37 13
137 25 269 32 14 1 31 -2 39 -7z m366 -18 c33 -8 81 -19 107 -23 25 -5 60 -16
77 -24 16 -9 38 -16 48 -16 10 0 35 -9 56 -20 20 -11 41 -20 46 -20 11 0 127
-55 173 -83 108 -64 141 -87 223 -153 50 -39 109 -92 133 -116 l43 -45 0
-1039 c-1 -966 -2 -1039 -18 -1039 -9 0 -20 12 -26 30 -6 17 -13 32 -17 35 -4
3 -15 21 -24 40 -14 31 -56 106 -115 210 -11 19 -28 52 -37 73 -9 20 -20 37
-25 37 -4 0 -12 12 -18 28 -6 15 -22 45 -36 67 -14 22 -34 58 -45 80 -11 22
-31 58 -44 80 -14 22 -32 54 -40 70 -15 28 -35 63 -106 188 -17 28 -38 69 -47
90 -9 20 -19 37 -24 37 -4 0 -12 12 -18 28 -6 15 -22 45 -36 67 -14 22 -34 58
-45 80 -11 22 -31 58 -44 80 -14 22 -32 54 -40 70 -15 29 -47 85 -108 190 -15
28 -36 67 -45 88 -9 20 -19 37 -24 37 -4 0 -12 12 -18 28 -6 15 -22 45 -36 67
-14 22 -34 58 -45 80 -11 22 -31 58 -45 80 -13 22 -27 47 -31 55 -4 8 -16 27
-26 42 -23 33 -28 514 -6 536 16 16 200 6 283 -15z m-365 -543 c12 -8 14 -81
15 -519 l0 -511 -29 -10 c-45 -16 -1124 -13 -1154 3 l-23 12 0 507 c0 279 2
512 6 518 8 13 1164 14 1185 0z m-1252 -1079 c2 -911 1 -1002 -14 -1008 -16
-6 -63 40 -64 63 0 6 -9 19 -20 29 -11 10 -20 23 -20 28 0 6 -6 18 -14 26 -23
26 -103 185 -110 218 -4 18 -14 37 -22 44 -8 6 -14 22 -14 36 0 13 -7 38 -16
54 -8 17 -19 54 -25 82 -5 29 -16 77 -24 107 -34 124 -28 584 9 672 9 21 16
54 16 75 0 21 9 51 20 68 11 17 20 40 20 53 0 12 9 39 20 59 11 21 20 42 20
48 0 6 14 37 32 70 17 33 38 74 46 90 9 17 20 35 24 40 17 21 58 86 58 92 0
13 54 63 65 60 7 -3 11 -318 13 -1006z m2640 991 c4 -10 33 -56 65 -103 31
-48 57 -92 57 -99 0 -6 9 -23 20 -37 11 -14 20 -32 20 -40 0 -8 9 -26 20 -40
11 -14 20 -35 20 -47 0 -11 9 -34 20 -51 11 -16 20 -43 20 -58 0 -15 9 -45 20
-67 11 -22 20 -54 20 -73 0 -18 9 -67 20 -108 29 -109 29 -442 0 -544 -11 -38
-20 -84 -20 -101 0 -18 -9 -51 -20 -75 -11 -24 -20 -55 -20 -69 0 -14 -9 -38
-20 -55 -11 -16 -20 -38 -20 -48 0 -15 -19 -59 -52 -117 -4 -8 -17 -33 -28
-55 -24 -46 -34 -64 -75 -124 -17 -24 -36 -55 -43 -68 -8 -13 -20 -23 -28 -21
-15 3 -23 1985 -9 2009 10 15 25 11 33 -9z m-1265 -66 c15 -19 27 -41 27 -49
0 -8 8 -25 18 -38 10 -13 23 -35 30 -49 7 -14 23 -43 36 -65 13 -22 38 -67 56
-100 18 -33 43 -78 56 -100 13 -22 32 -57 41 -77 9 -21 19 -38 24 -38 4 0 12
-12 18 -27 6 -16 22 -46 36 -68 14 -22 34 -58 45 -80 23 -43 47 -87 84 -150
13 -22 38 -67 56 -100 18 -33 43 -78 56 -100 13 -22 32 -57 41 -77 9 -21 19
-38 24 -38 4 0 12 -12 18 -27 6 -16 22 -46 36 -68 14 -22 34 -58 45 -80 11
-22 31 -58 44 -80 14 -22 32 -53 40 -70 9 -16 34 -61 56 -100 23 -38 47 -84
55 -101 8 -17 21 -36 29 -43 8 -7 18 -26 21 -42 4 -16 10 -29 15 -29 4 0 13
-12 19 -27 6 -16 22 -46 36 -68 14 -22 32 -54 39 -71 8 -17 22 -36 30 -44 28
-22 17 -50 -38 -103 -110 -104 -215 -183 -331 -248 -118 -65 -254 -129 -276
-129 -8 0 -27 -7 -44 -16 -16 -9 -52 -19 -80 -24 -27 -4 -79 -16 -115 -26 -96
-27 -554 -27 -650 0 -36 10 -85 22 -110 26 -25 5 -63 15 -85 23 -22 9 -57 18
-77 22 -29 4 -39 11 -44 31 -8 33 -7 34 64 44 32 4 68 13 78 18 10 5 48 24 84
42 83 42 174 114 242 193 29 34 56 64 59 67 16 12 99 183 99 203 1 12 9 40 20
62 19 39 19 71 20 941 0 495 3 904 7 907 11 12 17 8 46 -27z m-117 -976 c12
-12 8 -710 -6 -758 -5 -21 -10 -53 -10 -72 0 -19 -9 -48 -20 -65 -11 -16 -20
-40 -20 -51 0 -12 -9 -33 -20 -47 -11 -14 -20 -30 -20 -35 0 -42 -173 -216
-270 -271 -163 -92 -380 -128 -455 -75 -16 12 -61 42 -100 67 -73 48 -186 144
-244 207 l-33 37 1 527 c0 290 3 532 7 537 7 12 1177 12 1190 -1z"/>
<path d="M8342 4500 c-37 -35 -15 -81 23 -50 9 8 27 10 47 5 112 -23 150 -17
161 26 7 28 -19 36 -52 16 -26 -15 -30 -15 -64 3 -47 26 -88 25 -115 0z"/>
<path d="M5567 4355 c-22 -21 -23 -537 -2 -555 32 -27 44 5 47 123 l3 112 97
5 c104 5 131 17 112 48 -9 13 -27 18 -80 19 -38 2 -84 5 -101 8 l-33 6 0 89
c0 60 4 91 13 97 6 4 62 8 122 9 138 1 135 0 135 23 0 28 -18 31 -165 31 -104
0 -137 -3 -148 -15z"/>
<path d="M5989 4360 c-13 -8 -16 -41 -16 -242 -2 -318 4 -328 181 -328 92 0
96 1 131 31 l35 31 0 248 c0 267 -3 285 -49 260 -20 -10 -21 -18 -21 -250 0
-283 5 -270 -105 -270 -110 0 -105 -13 -105 269 0 259 -4 279 -51 251z"/>
<path d="M6452 4358 c-15 -15 -17 -535 -3 -557 8 -12 14 -13 36 -3 l27 13 -3
214 c-5 268 -10 263 111 129 107 -119 100 -103 100 -227 0 -125 7 -146 41
-131 22 10 22 11 23 283 1 254 0 274 -17 283 -35 19 -47 -7 -47 -103 0 -51 -4
-91 -11 -94 -5 -4 -56 41 -112 99 -100 104 -121 118 -145 94z"/>
<path d="M6928 4359 c-25 -14 -28 -539 -3 -559 10 -8 52 -11 140 -8 183 4 175
-9 175 287 0 246 -1 250 -57 279 -27 15 -231 15 -255 1z m237 -66 c25 -28 25
-28 25 -214 0 -237 -1 -239 -120 -239 -115 0 -110 -10 -110 239 0 247 -5 237
122 240 50 1 60 -2 83 -26z"/>
<path d="M7502 4362 c-7 -5 -41 -66 -77 -137 l-65 -128 0 -141 c0 -158 5 -176
44 -158 22 10 26 18 26 55 0 60 11 67 105 67 95 0 105 -7 105 -72 0 -52 17
-71 44 -49 11 9 13 43 12 154 -3 158 0 144 -68 285 -57 117 -88 148 -126 124z
m58 -117 c0 -12 9 -34 20 -48 11 -14 20 -31 20 -37 0 -7 9 -28 21 -46 29 -47
23 -114 -11 -131 -69 -35 -190 -3 -190 50 0 34 28 116 45 133 8 9 15 25 15 37
0 26 48 77 66 70 8 -3 14 -15 14 -28z"/>
<path d="M7883 4356 c-55 -25 -63 -61 -63 -286 0 -220 9 -254 75 -274 62 -18
82 -48 55 -81 -16 -20 -5 -45 19 -45 12 0 30 19 52 57 24 40 43 59 66 67 44
15 73 52 73 93 0 62 -47 53 -75 -14 l-14 -33 -75 0 c-118 0 -116 -4 -116 238
0 237 -2 234 111 240 69 4 69 4 86 -28 45 -82 83 -89 83 -16 0 63 -45 91 -153
94 -64 1 -102 -2 -124 -12z"/>
<path d="M8423 4363 c-7 -2 -38 -55 -68 -116 -31 -62 -60 -116 -66 -121 -12
-13 -12 -307 1 -326 17 -27 44 2 51 54 7 60 16 66 115 66 94 0 104 -7 104 -71
0 -53 10 -65 39 -50 17 10 19 21 16 153 -3 152 -7 179 -37 217 -10 13 -18 30
-18 38 0 23 -78 150 -96 157 -17 7 -23 7 -41 -1z m53 -110 c3 -10 24 -54 46
-98 67 -136 48 -185 -75 -185 -103 0 -128 29 -100 118 9 31 25 68 35 81 10 13
18 31 18 40 0 46 64 83 76 44z"/>
<path d="M8811 4362 c-59 -18 -66 -44 -69 -270 -3 -292 3 -302 173 -302 91 0
95 1 130 31 l35 31 0 227 0 227 -31 30 c-29 27 -35 29 -122 31 -51 1 -103 -1
-116 -5z m192 -75 c15 -19 17 -45 16 -207 -1 -237 -3 -240 -111 -240 -109 0
-108 -1 -108 238 0 211 1 216 50 236 34 14 134 -4 153 -27z"/>
<path d="M7099 3724 c-41 -17 -69 -61 -45 -70 23 -9 86 38 86 64 0 12 -1 22
-2 21 -2 0 -19 -7 -39 -15z"/>
<path d="M5628 3589 c-50 -29 -3 -59 92 -59 120 0 110 19 110 -220 0 -246 6
-235 -112 -232 -83 2 -108 12 -108 42 0 30 -28 46 -47 28 -38 -39 16 -131 85
-144 123 -23 225 19 235 98 12 94 1 479 -14 489 -19 12 -220 11 -241 -2z"/>
<path d="M6049 3561 l-39 -39 0 -213 c0 -193 2 -217 19 -243 57 -87 226 -93
301 -11 25 26 25 28 27 240 l2 213 -27 35 c-37 49 -60 57 -159 57 l-85 0 -39
-39z m219 -39 c9 -7 12 -58 10 -223 l-3 -214 -47 -5 c-27 -3 -69 -3 -95 0
l-48 5 -3 209 c-2 145 1 213 9 222 13 16 154 20 177 6z"/>
<path d="M6503 3567 c-34 -32 -38 -40 -38 -85 l0 -50 138 -140 c179 -183 183
-216 27 -215 -87 0 -110 11 -110 50 0 28 -24 40 -45 23 -32 -27 -6 -95 48
-129 35 -21 159 -29 198 -13 52 23 73 52 77 110 l3 57 -140 140 c-185 183
-189 215 -28 215 78 0 97 -9 111 -57 16 -52 56 -38 56 21 0 74 -41 100 -162
104 l-96 4 -39 -35z"/>
<path d="M6940 3580 c-18 -18 -19 -34 -19 -274 0 -322 -13 -299 166 -304 138
-5 173 3 173 38 0 30 -18 35 -138 36 -135 1 -134 0 -130 107 4 95 8 98 110 95
85 -2 111 9 88 37 -9 11 -33 15 -96 15 -100 0 -104 5 -104 107 0 92 2 93 135
93 114 0 135 6 135 41 0 26 -20 29 -166 29 -120 0 -136 -2 -154 -20z"/>
<path d="M6130 2822 c-128 -4 -120 15 -120 -302 0 -235 2 -269 16 -274 9 -3
85 -6 170 -6 144 0 154 1 154 19 0 27 -18 31 -139 31 -131 0 -131 0 -131 106
0 98 -1 97 100 95 81 -2 105 9 98 46 -3 15 -17 19 -98 23 l-95 5 0 95 0 95
128 3 c104 2 129 5 134 18 15 39 -47 52 -217 46z"/>
<path d="M7005 2820 c-49 -3 -96 -9 -102 -13 -21 -14 -18 -553 3 -561 9 -3 85
-6 171 -6 l154 0 -3 23 c-3 21 -7 22 -122 25 -147 3 -146 2 -146 108 0 98 -1
97 100 95 71 -2 80 0 94 20 26 37 5 48 -97 51 l-92 3 0 95 0 95 130 5 c125 5
130 6 133 27 5 33 -60 42 -223 33z"/>
<path d="M7409 2814 c-60 -18 -89 -55 -89 -113 0 -46 0 -47 140 -186 125 -124
140 -143 138 -170 -4 -41 -37 -56 -118 -53 -65 3 -65 3 -86 43 -32 62 -73 58
-74 -7 0 -16 12 -38 31 -57 30 -31 32 -31 135 -31 123 0 137 5 163 66 29 65
16 88 -127 232 -142 142 -148 151 -127 192 15 30 17 30 95 30 83 0 110 -12
110 -49 0 -28 26 -46 45 -31 31 26 5 99 -43 124 -38 19 -142 25 -193 10z"/>
<path d="M5561 2798 c-13 -36 -14 -513 -1 -538 13 -25 36 -26 45 -2 3 9 6 107
5 217 -2 241 -3 225 14 225 17 0 127 -113 193 -199 8 -10 12 -55 13 -123 0
-119 4 -138 30 -138 28 0 29 13 26 298 -3 275 -9 312 -42 267 -12 -15 -15 -41
-12 -105 4 -115 -16 -121 -90 -28 -103 128 -164 171 -181 126z"/>
<path d="M6732 2808 c-8 -8 -12 -57 -12 -152 0 -124 -3 -145 -20 -171 -11 -16
-20 -36 -20 -43 0 -8 -9 -25 -20 -39 -11 -14 -20 -34 -20 -45 0 -32 -31 -34
-57 -4 -12 15 -23 34 -23 43 0 9 -10 32 -22 52 -21 32 -23 51 -26 186 -4 151
-10 175 -42 175 -27 0 -30 -19 -30 -172 0 -125 2 -143 20 -165 11 -14 20 -32
20 -40 0 -8 9 -26 20 -40 11 -14 20 -34 20 -43 0 -10 7 -23 14 -30 8 -6 20
-27 26 -46 15 -46 67 -49 96 -6 29 43 101 187 114 228 20 59 21 285 2 307 -18
20 -24 21 -40 5z"/>
</g>
</svg>
