<?xml version="1.0" standalone="no"?>
<!DOCTYPE svg PUBLIC "-//W3C//DTD SVG 20010904//EN"
 "http://www.w3.org/TR/2001/REC-SVG-20010904/DTD/svg10.dtd">
<svg version="1.0" xmlns="http://www.w3.org/2000/svg"
 width="611pt" height="288pt" viewBox="237 189 611 288"
 preserveAspectRatio="xMidYMid meet">
<metadata>
Created by potrace 1.16, written by Peter Selinger 2001-2019
</metadata>
<g transform="translate(0.000000,680.000000) scale(0.100000,-0.100000)"
fill="#ffffff" stroke="none">
<path d="M6905 4816 c-22 -7 -59 -22 -82 -34 -23 -12 -49 -22 -56 -22 -47 0
-309 -148 -431 -244 -45 -35 -208 -189 -271 -256 -110 -116 -273 -363 -321
-489 -14 -36 -32 -81 -40 -100 -36 -81 -39 -339 -5 -398 6 -10 18 -38 27 -63
39 -109 51 -138 79 -184 142 -235 307 -429 484 -572 155 -125 154 -125 247
-177 216 -122 302 -150 474 -154 162 -5 218 8 380 86 160 76 274 154 427 291
236 212 443 489 502 672 7 21 24 59 38 85 44 83 46 292 3 393 -17 41 -36 89
-41 105 -19 61 -94 197 -166 300 -217 312 -578 608 -868 711 -33 11 -87 31
-119 43 -68 24 -195 28 -261 7z m-39 -639 c81 -82 96 -119 87 -199 -6 -49 -11
-56 -123 -172 -124 -129 -134 -142 -162 -221 -46 -125 -4 -325 79 -378 7 -4
33 -25 57 -46 88 -76 245 -98 367 -52 75 28 167 117 205 197 40 84 41 231 1
314 -35 73 -106 150 -138 150 -27 0 -149 -118 -149 -144 0 -22 29 -27 62 -10
92 48 146 -167 70 -279 -126 -182 -407 -111 -428 109 -9 100 6 121 315 430
162 162 282 274 293 274 33 0 455 -435 489 -503 54 -108 50 -282 -9 -387 -32
-58 -587 -612 -639 -638 -59 -30 -171 -62 -218 -62 -51 0 -166 34 -215 63 -62
37 -589 564 -626 625 -66 111 -79 243 -34 360 32 84 39 93 319 374 315 317
289 305 397 195z"/>
<path d="M4205 4118 c-3 -13 -4 -241 -3 -508 l3 -485 70 -3 c38 -2 80 0 92 3
l23 5 -2 503 -3 502 -87 3 c-84 3 -88 2 -93 -20z"/>
<path d="M2775 3830 c-151 -9 -232 -62 -295 -195 -37 -78 -45 -202 -16 -269 9
-21 16 -45 16 -53 0 -30 92 -127 149 -157 52 -27 66 -29 193 -33 153 -5 163
-10 148 -63 -30 -106 -144 -149 -307 -117 -87 17 -94 13 -112 -61 -12 -46 -11
-55 3 -71 38 -42 301 -58 388 -24 71 27 178 111 178 139 0 6 6 17 14 23 35 29
45 134 47 504 1 199 -2 362 -7 367 -11 11 -272 17 -399 10z m195 -170 c24 -24
31 -345 8 -368 -20 -20 -217 -16 -249 6 -112 74 -125 260 -25 337 64 49 227
64 266 25z"/>
<path d="M3525 3829 c-122 -11 -138 -23 -128 -97 9 -76 18 -85 66 -78 206 32
275 29 319 -15 30 -29 36 -57 16 -77 -8 -8 -53 -12 -137 -12 -184 0 -262 -34
-311 -135 -51 -106 2 -216 132 -275 69 -31 492 -30 509 1 22 43 7 495 -19 552
-56 125 -176 161 -447 136z m268 -427 c26 -23 24 -117 -2 -132 -27 -14 -188
-12 -231 3 -32 11 -35 16 -38 54 -4 58 19 76 106 83 118 10 146 9 165 -8z"/>
<path d="M4650 3830 l-45 -5 0 -510 0 -510 83 -3 c46 -2 89 2 96 7 8 7 13 54
13 151 1 77 5 144 8 150 4 6 62 10 143 10 152 0 196 14 270 84 143 133 149
378 15 527 -76 84 -123 97 -344 101 -107 2 -214 1 -239 -2z m397 -174 c115
-59 128 -267 21 -345 -58 -43 -252 -48 -268 -7 -15 41 -7 340 10 361 18 22
190 16 237 -9z"/>
</g>
</svg>
