<?xml version="1.0" standalone="no"?>
<!DOCTYPE svg PUBLIC "-//W3C//DTD SVG 20010904//EN"
 "http://www.w3.org/TR/2001/REC-SVG-20010904/DTD/svg10.dtd">
<svg version="1.0" xmlns="http://www.w3.org/2000/svg"
 width="769pt" height="256pt" viewBox="156 206 769 256"
 preserveAspectRatio="xMidYMid meet">
<metadata>
Created by potrace 1.16, written by Peter Selinger 2001-2019
</metadata>
<g transform="translate(0.000000,680.000000) scale(0.100000,-0.100000)"
fill="#ffffff" stroke="none">
<path d="M2212 4605 c-59 -31 -116 -66 -127 -79 -11 -13 -28 -27 -37 -32 -32
-17 -128 -107 -128 -120 0 -7 -16 -29 -35 -48 -19 -20 -35 -41 -35 -49 0 -7
-11 -24 -25 -37 -14 -13 -25 -27 -25 -32 0 -4 -18 -50 -39 -101 -22 -50 -43
-110 -47 -132 -4 -22 -13 -49 -20 -60 -8 -11 -14 -35 -14 -55 -1 -19 -8 -64
-17 -100 -17 -71 -31 -1096 -15 -1139 13 -37 58 33 76 119 11 54 21 79 40 94
13 12 31 35 39 51 37 74 258 285 299 285 5 0 35 15 66 34 141 84 272 103 272
38 0 -39 -25 -59 -94 -77 -71 -19 -224 -94 -296 -146 -30 -22 -73 -52 -95 -67
-68 -47 -111 -132 -67 -132 11 0 27 9 37 20 20 22 206 116 250 125 17 4 48 13
70 20 39 14 126 31 368 75 64 11 136 27 158 35 23 8 50 15 61 15 11 0 66 23
123 51 173 86 253 183 323 394 38 112 50 294 54 762 3 380 13 356 -139 333
-38 -6 -122 -17 -188 -25 -150 -19 -233 -33 -254 -44 -9 -5 -46 -14 -81 -21
-36 -6 -86 -20 -112 -30 -26 -11 -56 -20 -67 -20 -37 0 -51 -37 -51 -133 0
-99 -16 -122 -53 -76 -18 22 -19 34 -12 177 10 212 7 214 -163 127z"/>
<path d="M4116 4193 c-53 -8 -152 -88 -184 -150 -24 -45 -35 -162 -23 -232 15
-81 38 -116 112 -172 l53 -39 137 0 138 0 20 29 c17 23 21 44 21 101 0 57 5
80 22 108 32 52 19 64 -76 66 -88 1 -108 -13 -65 -46 13 -10 30 -23 37 -28 18
-16 16 -144 -3 -160 -8 -7 -44 -15 -80 -18 -188 -15 -299 145 -234 336 35 105
96 143 228 146 62 1 64 0 97 -39 31 -38 34 -39 50 -23 24 24 2 106 -33 119
-24 9 -161 10 -217 2z"/>
<path d="M4654 4184 c-117 -57 -198 -237 -164 -364 26 -102 43 -131 97 -176
l55 -44 107 0 c119 0 155 16 213 92 117 154 71 431 -83 492 -52 21 -183 21
-225 0z m188 -64 c81 -23 143 -198 109 -303 -82 -249 -370 -210 -389 52 -13
193 105 299 280 251z"/>
<path d="M5068 4189 c-27 -15 -22 -41 13 -69 23 -19 32 -36 36 -70 3 -25 14
-57 24 -72 11 -14 19 -37 19 -50 0 -12 9 -41 19 -63 10 -22 21 -56 25 -75 4
-19 24 -69 44 -110 58 -116 105 -106 146 31 8 26 21 60 30 77 9 17 16 39 16
48 0 9 8 35 19 58 28 61 71 175 71 187 0 6 14 28 30 49 17 21 30 42 30 48 0
15 -91 25 -123 13 -32 -13 -32 -12 -8 -53 18 -28 19 -34 6 -57 -17 -30 -41
-95 -60 -162 -7 -26 -18 -55 -25 -65 -6 -11 -16 -41 -23 -68 -19 -78 -77 -94
-77 -22 0 20 -11 64 -24 98 -99 253 -96 239 -69 287 10 16 15 32 13 34 -12 11
-117 16 -132 6z"/>
<path d="M5735 4196 c-5 -2 -23 -7 -38 -10 l-28 -7 25 -30 26 -31 0 -214 c0
-229 -4 -248 -47 -265 -59 -22 -7 -34 168 -37 197 -4 201 -2 197 67 -4 62 -34
68 -73 17 -26 -35 -30 -36 -91 -36 -79 0 -84 8 -84 122 0 97 7 108 66 108 34
0 47 -5 63 -26 33 -41 55 -28 65 39 6 42 5 61 -4 72 -18 22 -48 18 -61 -7 -23
-44 -61 -50 -102 -18 -25 19 -26 26 -25 96 2 90 9 98 90 95 53 -1 66 -6 96
-33 40 -34 62 -23 62 32 0 56 -14 62 -161 66 -74 2 -138 2 -144 0z"/>
<path d="M6153 4190 c-29 -12 -29 -14 3 -55 24 -32 25 -40 25 -152 -1 -65 -1
-162 -1 -216 l0 -98 -30 -17 c-53 -30 -35 -47 55 -50 104 -3 122 8 76 47 -32
26 -34 32 -38 102 -6 95 13 131 47 89 11 -14 23 -34 26 -45 4 -11 21 -38 39
-60 17 -22 38 -51 45 -65 24 -47 52 -70 86 -70 71 0 85 26 29 53 -19 9 -46 34
-59 56 -14 22 -29 42 -35 45 -16 10 -62 106 -56 117 4 5 28 21 55 34 133 67
131 215 -4 279 -38 18 -223 22 -263 6z m260 -88 c65 -61 15 -165 -86 -176 -81
-10 -86 -4 -84 102 2 81 4 87 27 99 37 18 110 5 143 -25z"/>
<path d="M7048 4190 c-24 -15 -23 -25 7 -52 24 -23 24 -25 26 -205 2 -229 -5
-244 -63 -147 -40 69 -68 113 -89 145 -9 13 -43 67 -75 119 -81 131 -92 140
-170 140 -75 0 -86 -20 -34 -58 l30 -23 0 -212 c0 -220 -6 -257 -45 -257 -20
0 -30 -21 -14 -31 25 -15 165 -11 179 6 10 12 6 18 -23 35 l-35 21 2 132 c2
95 -2 144 -12 174 -14 42 -10 93 7 93 16 0 84 -97 160 -227 19 -32 55 -89 80
-127 25 -38 51 -77 56 -88 19 -35 85 -36 101 0 4 9 9 122 11 251 4 218 5 236
25 263 11 17 17 33 12 38 -15 14 -117 21 -136 10z"/>
<path d="M7425 4182 c-201 -84 -248 -394 -82 -534 l51 -43 103 -3 c115 -4 142
6 214 79 104 105 99 356 -10 456 -67 61 -190 81 -276 45z m208 -82 c26 -16 47
-37 47 -45 0 -9 9 -33 20 -55 26 -51 26 -136 1 -198 -11 -26 -22 -55 -24 -64
-3 -9 -30 -33 -59 -52 -68 -46 -130 -48 -198 -7 -133 81 -137 348 -6 426 62
38 156 35 219 -5z"/>
<path d="M8062 4189 l-23 -9 29 -37 29 -38 2 -203 c1 -213 -5 -251 -46 -267
-17 -6 -17 -7 1 -21 15 -11 54 -14 162 -14 140 0 142 0 204 32 121 63 170 169
151 325 -15 123 -81 200 -201 233 -44 12 -277 12 -308 -1z m359 -94 c52 -37
68 -71 86 -182 9 -57 -31 -166 -73 -198 -78 -59 -222 -86 -257 -47 -23 26 -21
438 2 453 35 22 198 4 242 -26z"/>
<path d="M8633 4193 c-31 -6 -29 -31 5 -46 42 -18 42 -18 42 -252 0 -236 -1
-240 -43 -250 -30 -8 -36 -29 -11 -39 9 -3 89 -6 179 -6 182 0 195 4 195 63 0
65 -43 74 -77 16 -16 -28 -21 -29 -85 -29 -81 0 -83 2 -92 117 -8 98 2 113 69
113 42 0 75 -18 75 -41 0 -6 10 -9 23 -7 20 3 22 8 22 67 0 85 -20 101 -64 53
-30 -32 -70 -42 -100 -23 -28 18 -40 154 -17 186 24 33 141 23 181 -16 35 -33
50 -36 59 -13 12 32 5 66 -19 89 -24 24 -27 25 -172 24 -81 -1 -158 -4 -170
-6z"/>
<path d="M7570 3459 c-50 -9 -200 -76 -200 -90 0 -3 -20 -27 -44 -54 -50 -54
-61 -96 -61 -235 0 -253 197 -389 478 -329 105 22 108 26 112 144 3 85 7 100
29 130 27 35 34 69 15 80 -13 9 -238 12 -251 4 -23 -15 -4 -72 27 -81 41 -10
55 -33 55 -88 0 -91 -62 -115 -184 -70 -218 82 -179 441 52 476 71 11 112 -4
145 -53 17 -26 36 -43 48 -43 74 0 83 171 10 199 -39 15 -169 20 -231 10z"/>
<path d="M3951 3446 c-35 -15 -26 -52 19 -81 55 -35 55 -35 52 -283 l-3 -223
-44 -21 c-122 -59 -23 -103 204 -90 70 4 82 55 20 84 -33 15 -37 22 -43 66
-11 82 1 98 76 104 90 8 139 31 189 90 99 117 63 286 -73 344 -48 20 -357 28
-397 10z m328 -110 c109 -57 66 -219 -61 -228 -55 -3 -58 3 -58 121 0 59 3
111 7 114 12 12 83 7 112 -7z"/>
<path d="M4764 3444 c-257 -92 -294 -551 -55 -674 134 -68 330 -26 419 89 66
84 73 111 73 264 l0 141 -48 69 c-64 95 -118 121 -253 124 -63 1 -109 -4 -136
-13z m171 -104 c73 -28 111 -76 125 -154 33 -194 -41 -331 -178 -331 -150 0
-228 144 -184 336 16 69 20 76 67 111 44 33 64 40 127 46 9 1 29 -3 43 -8z"/>
<path d="M5357 3451 c-108 -9 -125 -48 -39 -89 l37 -17 0 -245 0 -245 -42 -20
c-106 -49 -55 -87 111 -83 117 3 121 4 124 26 2 14 -8 35 -27 58 -17 19 -31
42 -32 52 0 9 -2 33 -5 52 -13 100 42 115 82 23 14 -32 34 -67 44 -78 11 -11
26 -38 36 -60 28 -68 38 -75 120 -75 52 0 77 4 88 15 23 23 2 61 -46 79 -26
11 -42 25 -48 44 -6 15 -15 34 -20 42 -52 77 -70 106 -70 115 0 6 27 33 59 60
72 60 85 92 76 178 -9 85 -39 130 -102 152 -54 19 -220 27 -346 16z m287 -132
c57 -49 56 -84 -2 -147 -32 -35 -114 -46 -140 -20 -19 19 -16 163 4 182 28 28
98 21 138 -15z"/>
<path d="M5889 3446 c-16 -17 -11 -162 6 -176 23 -19 63 -3 81 33 20 39 31 47
65 47 49 0 54 -17 55 -219 1 -261 -2 -281 -46 -296 -44 -15 -54 -56 -18 -78
32 -20 274 -9 288 12 13 22 -6 49 -48 69 l-37 17 -3 229 c-2 203 0 231 14 248
28 30 65 23 100 -19 29 -35 80 -50 101 -30 12 13 2 142 -12 156 -17 18 -529
23 -546 7z"/>
<path d="M6534 3442 c-18 -18 -18 -21 9 -61 12 -19 27 -43 33 -54 8 -12 12
-86 11 -218 l0 -198 29 -58 c34 -66 66 -87 171 -109 91 -19 118 -18 183 7 152
57 180 119 180 388 l0 189 35 42 c19 23 35 46 35 51 0 38 -232 52 -267 16 -21
-21 -6 -53 40 -82 l32 -20 -3 -170 c-4 -261 -24 -308 -133 -321 -67 -8 -155
29 -163 69 -8 37 -15 392 -9 416 3 12 18 28 34 37 39 19 52 46 35 69 -17 24
-230 30 -252 7z"/>
<path d="M8235 3453 c-37 -9 -64 -44 -71 -92 -4 -25 -15 -62 -24 -81 -27 -52
-59 -135 -85 -220 -13 -41 -30 -88 -39 -105 -9 -16 -16 -41 -16 -53 0 -14 -14
-36 -35 -55 -71 -63 -39 -103 83 -105 134 -2 175 31 107 85 -47 37 -47 69 0
89 41 17 228 12 251 -7 21 -17 17 -57 -6 -69 -34 -18 -45 -61 -22 -80 31 -25
238 -18 265 9 22 21 26 15 -60 90 -12 11 -25 32 -29 48 -3 15 -12 42 -20 60
-8 17 -14 36 -14 42 0 6 -14 45 -31 88 -17 43 -44 116 -60 163 -56 161 -60
170 -89 185 -28 15 -65 17 -105 8z m81 -244 c7 -35 19 -77 28 -94 31 -58 18
-79 -53 -88 -53 -7 -87 5 -96 32 -9 29 53 209 74 214 30 8 35 1 47 -64z"/>
<path d="M8687 3440 c-27 -23 -18 -43 35 -72 l43 -23 0 -239 0 -239 -44 -31
c-55 -39 -59 -50 -26 -72 33 -22 427 -26 448 -5 17 17 20 131 5 161 -23 43
-62 39 -94 -10 -29 -44 -57 -60 -103 -60 -51 0 -54 13 -59 253 -5 247 -4 251
60 264 16 3 33 14 39 25 10 19 4 58 -9 58 -247 7 -275 6 -295 -10z"/>
<path d="M2165 2840 c-169 -27 -380 -155 -426 -259 -34 -77 -19 -191 26 -191
7 0 23 -12 34 -26 13 -17 39 -30 73 -39 29 -7 80 -21 113 -29 94 -25 277 -39
293 -22 20 19 21 538 2 560 -13 17 -36 18 -115 6z"/>
</g>
</svg>
