<?xml version="1.0" standalone="no"?>
<!DOCTYPE svg PUBLIC "-//W3C//DTD SVG 20010904//EN"
 "http://www.w3.org/TR/2001/REC-SVG-20010904/DTD/svg10.dtd">
<svg version="1.0" xmlns="http://www.w3.org/2000/svg"
 width="515pt" height="516pt" viewBox="281 76 515 516"
 preserveAspectRatio="xMidYMid meet">
<metadata>
Created by potrace 1.16, written by Peter Selinger 2001-2019
</metadata>
<g transform="translate(0.000000,680.000000) scale(0.100000,-0.100000)"
fill="#ffffff" stroke="none">
<path d="M4253 5936 c-29 -14 -69 -41 -88 -60 -29 -30 -43 -36 -76 -36 -114 0
-200 -104 -185 -223 6 -45 4 -56 -14 -75 -31 -33 -46 -27 -77 30 -23 44 -39
59 -92 88 -62 34 -65 37 -78 89 -33 130 -159 198 -296 160 -33 -9 -48 -7 -108
17 -61 24 -73 26 -107 16 -93 -28 -142 -89 -142 -175 0 -57 10 -79 57 -128 27
-29 36 -48 42 -91 13 -100 90 -178 174 -178 35 0 107 -48 107 -70 0 -36 -48
-63 -118 -66 -46 -2 -86 -11 -111 -23 -43 -22 -101 -94 -101 -125 -1 -31 -21
-61 -67 -101 -118 -101 -103 -235 37 -328 29 -20 120 -23 153 -6 12 7 39 27
60 45 33 30 44 34 92 34 90 0 149 39 190 123 17 34 29 45 69 59 63 22 91 49
106 102 27 97 -8 125 -55 43 -22 -38 -41 -57 -70 -70 -76 -33 -90 -43 -104
-72 -31 -67 -84 -104 -167 -116 -36 -5 -65 -17 -98 -43 -54 -41 -86 -45 -134
-16 -90 55 -90 167 -1 218 18 11 38 38 54 73 38 86 97 126 200 136 53 5 74 12
108 38 23 18 59 35 80 39 48 9 50 38 5 65 -41 24 -75 58 -93 93 -12 21 -24 27
-67 33 -90 12 -178 89 -178 156 0 18 -14 44 -40 74 -89 103 1 235 127 186 36
-13 66 -17 118 -13 66 4 73 2 120 -30 56 -37 90 -83 105 -139 11 -39 41 -69
71 -69 52 0 106 -83 134 -204 35 -152 139 -243 268 -234 78 5 115 30 152 104
33 65 37 68 102 84 96 22 161 109 149 198 -5 38 -2 53 20 90 67 114 42 227
-61 287 -63 37 -111 40 -172 11z m107 -88 c79 -41 95 -105 50 -193 -11 -22
-20 -49 -20 -61 0 -80 -77 -169 -173 -198 -10 -3 -29 -29 -42 -58 -48 -103
-162 -137 -243 -71 -75 61 -77 147 -6 224 40 42 44 51 44 98 0 98 42 150 151
186 44 15 79 31 79 35 0 15 73 60 95 60 12 0 41 -10 65 -22z"/>
<path d="M4255 5742 c-15 -11 -95 -108 -159 -194 -59 -78 -66 -108 -27 -108
30 0 189 195 214 262 7 20 -14 51 -28 40z"/>
<path d="M4953 5764 c-48 -17 -161 -130 -191 -191 -92 -186 -95 -190 -267
-308 -65 -44 -241 -191 -331 -277 -40 -38 -80 -68 -92 -68 -22 0 -223 204
-270 274 -29 43 -59 57 -73 34 -19 -29 -4 -51 117 -174 169 -174 182 -190 161
-211 -9 -9 -28 -17 -44 -19 -15 -2 -71 -7 -123 -13 -52 -6 -120 -11 -150 -11
-65 0 -79 -7 -82 -40 -4 -30 27 -32 185 -11 143 18 169 3 101 -63 -31 -30 -43
-35 -107 -41 -78 -7 -244 -48 -292 -72 -69 -35 -95 -72 -95 -135 0 -49 -5 -65
-29 -99 -32 -43 -31 -59 5 -114 16 -25 16 -28 -4 -69 -28 -55 -30 -43 23 -153
25 -51 45 -106 45 -121 0 -68 90 -221 164 -280 59 -46 45 -68 -69 -106 -44
-15 -93 -33 -110 -40 -16 -8 -48 -17 -70 -20 -76 -13 -165 -47 -179 -69 -89
-144 -40 -459 93 -597 l47 -50 80 0 c93 0 136 -17 209 -80 l49 -42 70 5 c152
10 209 40 460 239 83 66 158 125 166 131 37 29 143 97 152 97 5 0 49 -14 96
-31 112 -39 196 -47 282 -24 167 44 208 47 595 54 l380 7 80 27 c154 54 278
115 403 201 238 162 257 183 248 280 -7 77 1 100 58 170 27 34 28 38 17 80
-19 76 -15 164 8 171 40 12 94 -26 241 -174 151 -150 170 -177 170 -234 0 -17
9 -78 20 -136 30 -168 58 -332 65 -386 3 -27 10 -63 15 -80 5 -16 14 -70 20
-120 31 -252 69 -280 203 -147 l77 77 81 -3 c110 -3 122 5 116 76 -4 48 -64
245 -97 317 -38 84 -13 98 71 41 118 -80 193 -126 206 -126 23 0 14 45 -28
141 -23 52 -50 114 -61 139 -10 25 -25 59 -33 75 -8 17 -32 71 -55 120 -217
474 -463 946 -594 1140 -32 47 -32 60 0 92 25 25 29 25 107 19 101 -8 196 -29
307 -68 47 -16 92 -32 102 -35 24 -7 36 24 44 117 8 91 -2 110 -53 110 -28 0
-109 35 -119 51 -17 29 102 62 274 78 126 11 127 13 126 147 -2 121 -8 133
-55 110 -48 -22 -160 -56 -187 -56 -22 0 -44 34 -35 55 2 6 31 27 63 48 40 25
60 44 60 57 0 21 -151 150 -176 150 -8 0 -34 -28 -58 -62 -90 -126 -102 -141
-143 -179 -82 -75 -136 -61 -115 31 13 55 54 148 84 192 41 59 17 76 -122 85
-114 7 -101 18 -140 -121 -38 -135 -119 -261 -222 -347 -79 -66 -86 -65 -199
39 -108 99 -145 131 -244 213 -38 32 -110 101 -159 154 -106 115 -143 140
-238 162 -182 41 -339 -49 -391 -225 -21 -69 -32 -87 -93 -160 -69 -81 -69
-92 -4 -92 58 0 72 -16 46 -55 -31 -47 -22 -68 27 -61 277 39 326 11 367 -209
13 -66 36 -153 52 -193 42 -101 38 -106 -70 -98 -247 18 -501 27 -711 24 -252
-3 -264 0 -219 45 30 30 129 88 190 110 51 20 82 47 61 54 -7 3 -23 13 -35 23
l-23 18 39 36 c43 42 40 53 -21 75 -54 19 -157 77 -178 101 -50 55 112 213
310 302 68 30 77 43 41 59 -44 20 -44 58 0 77 41 19 27 37 -48 62 -40 14 -95
41 -123 61 -84 61 -163 74 -252 43z m202 -89 c28 -18 60 -36 73 -40 25 -7 28
-30 10 -70 -9 -19 -9 -28 0 -37 20 -20 14 -38 -16 -51 -97 -42 -212 -150 -275
-257 -25 -42 -39 -56 -63 -61 -71 -14 -131 -70 -194 -182 -33 -58 -85 -108
-171 -162 -127 -80 -508 -351 -509 -362 0 -7 11 -15 25 -19 20 -5 69 24 277
162 343 229 384 263 440 360 87 151 157 175 300 107 82 -40 90 -52 61 -92 -13
-19 -14 -28 -5 -42 19 -30 15 -35 -54 -70 -152 -78 -275 -237 -336 -434 -22
-74 -22 -81 -2 -89 25 -9 39 8 64 77 44 120 79 185 102 193 37 12 810 8 945
-5 238 -23 266 -34 327 -125 19 -28 57 -80 86 -116 74 -92 76 -97 48 -156 -24
-50 -48 -65 -67 -42 -14 16 -47 61 -131 177 -109 152 -203 175 -269 67 -38
-61 -23 -142 18 -94 10 13 30 36 43 52 50 59 97 1 62 -76 -18 -39 -18 -41 1
-54 27 -20 33 -18 49 21 16 39 35 44 58 18 18 -22 108 -179 108 -190 0 -4 26
-46 58 -93 94 -139 131 -140 256 -10 41 44 82 80 90 80 34 0 38 -37 15 -128
-39 -152 -70 -196 -149 -208 -25 -4 -61 -15 -80 -25 -19 -11 -42 -19 -51 -19
-23 0 -101 -59 -94 -70 9 -15 36 -11 80 10 41 20 158 28 181 12 41 -28 24 -70
-68 -160 -105 -103 -320 -242 -375 -242 -7 0 -27 -6 -45 -14 -128 -55 -148
-58 -526 -61 -361 -3 -557 -20 -620 -54 -42 -23 -136 -7 -240 40 -72 32 -102
26 -173 -33 -79 -68 -120 -97 -139 -98 -21 -1 -44 -15 -139 -88 -110 -83 -120
-74 -81 83 25 103 25 146 0 178 -35 44 -130 93 -235 121 -55 15 -122 33 -150
41 -27 8 -60 12 -72 9 -24 -7 -31 -28 -13 -39 20 -12 9 -48 -22 -77 l-33 -31
35 6 c19 3 63 14 97 23 102 30 249 -12 299 -85 44 -65 27 -206 -40 -339 -31
-62 -62 -86 -131 -106 -89 -26 -122 -22 -177 25 -64 53 -119 77 -203 85 -82 8
-112 29 -152 108 -57 112 -65 186 -33 312 22 90 39 108 115 124 59 13 217 68
355 125 49 21 88 28 162 32 119 7 191 -22 325 -131 88 -71 110 -78 150 -46 68
53 175 11 242 -95 37 -59 44 -64 62 -55 31 17 32 34 8 82 -65 129 -122 162
-274 164 l-110 0 -85 56 c-143 94 -195 111 -320 106 -133 -6 -134 -6 -217 72
-72 68 -98 103 -88 120 10 16 23 12 83 -28 115 -76 136 -82 289 -86 148 -4
215 -22 240 -63 33 -57 216 -76 515 -54 174 13 218 23 218 52 0 29 -41 33
-169 19 -387 -41 -575 7 -463 120 50 50 153 45 297 -15 43 -19 56 -19 81 -1
28 21 1 45 -79 69 -34 10 -84 25 -112 34 -89 27 -188 23 -222 -9 -61 -58 -115
-73 -263 -72 -152 0 -173 7 -306 89 -89 56 -217 187 -212 218 5 34 39 32 77
-4 88 -84 306 -141 395 -104 74 31 34 70 -79 78 -172 12 -365 133 -365 229 0
49 7 48 160 -32 91 -49 92 -49 193 -4 139 61 205 56 392 -31 84 -39 146 -49
167 -27 17 18 -1 31 -127 92 -193 94 -302 110 -429 65 -72 -26 -82 -27 -125
-16 -132 35 -234 143 -178 189 26 22 119 52 181 58 82 8 89 -3 45 -74 -17 -28
-28 -55 -24 -61 12 -21 50 -11 67 17 156 252 532 632 810 819 85 57 120 100
183 220 73 139 139 206 235 236 28 9 75 -6 125 -38z m818 19 c74 -19 80 -24
237 -177 69 -67 188 -177 265 -244 248 -215 457 -438 556 -593 115 -179 166
-272 336 -610 188 -374 191 -396 42 -287 -180 131 -393 353 -533 556 -37 54
-55 71 -73 71 -36 0 -25 -33 45 -134 169 -245 416 -486 666 -651 l91 -60 62
-125 c67 -132 75 -160 44 -160 -16 0 -109 57 -177 108 -12 9 -35 26 -50 37
-279 200 -634 542 -821 792 -86 115 -107 145 -208 303 -91 144 -103 164 -167
295 -27 55 -54 111 -61 125 -9 17 -21 25 -37 25 -58 0 -34 -77 97 -305 88
-155 231 -369 310 -466 53 -65 39 -93 -28 -59 l-29 16 -78 -81 c-79 -82 -114
-98 -141 -67 -28 35 -23 71 23 162 57 112 57 107 -7 185 -29 36 -73 94 -97
130 -25 36 -55 78 -67 93 -69 85 -151 310 -176 482 -21 139 -97 196 -264 195
-91 0 -96 4 -65 55 25 41 18 55 -28 55 -51 0 -57 13 -27 58 13 20 37 67 52
104 43 105 104 155 220 181 11 3 22 5 24 6 2 0 30 -6 64 -15z m1235 -107 c8
-9 5 -28 -9 -67 -67 -183 -65 -257 9 -281 73 -24 166 41 285 199 l47 62 33
-13 c46 -19 44 -38 -7 -96 -96 -107 -44 -175 113 -150 35 5 72 14 81 19 28 15
52 -10 48 -50 -3 -39 -8 -41 -118 -59 -264 -43 -484 -127 -609 -231 -72 -60
-90 -62 -127 -12 -16 20 -52 62 -81 92 -66 69 -66 86 -3 139 112 95 250 311
250 393 0 52 60 90 88 55z m212 -628 c27 -17 66 -35 85 -40 47 -13 90 -51 82
-72 -9 -24 -51 -21 -134 8 -39 13 -100 27 -137 31 -107 11 -123 41 -43 80 60
30 90 28 147 -7z m-192 -1418 c40 -35 45 -45 58 -112 7 -41 25 -126 39 -189
14 -63 32 -144 40 -180 7 -36 20 -96 29 -134 21 -95 -11 -166 -75 -166 -35 0
-31 -13 -84 305 -7 44 -18 107 -24 140 -6 33 -15 85 -20 115 -5 30 -17 93 -25
139 -25 130 -11 148 62 82z m188 -146 c54 -41 60 -51 84 -127 13 -40 43 -133
67 -205 56 -174 55 -193 -12 -193 -62 0 -80 30 -121 200 -7 30 -22 93 -34 140
-40 162 -43 177 -37 193 8 22 14 21 53 -8z"/>
<path d="M5029 5621 c-26 -21 -21 -43 14 -65 38 -24 74 35 42 68 -21 21 -28
20 -56 -3z"/>
<path d="M4922 5008 c-32 -32 2 -89 42 -70 41 19 31 82 -14 82 -9 0 -21 -5
-28 -12z"/>
<path d="M4613 4608 c-5 -7 -20 -33 -32 -57 -13 -25 -43 -71 -68 -103 -42 -53
-51 -88 -23 -88 36 0 180 179 180 224 0 32 -38 48 -57 24z"/>
<path d="M5719 4256 c-2 -3 -48 -16 -100 -30 -94 -25 -97 -25 -155 -9 -98 27
-311 23 -397 -8 -105 -37 -197 -113 -170 -140 10 -10 31 -4 95 27 l83 39 105
-4 c281 -12 402 -7 466 17 82 31 123 65 108 88 -11 19 -27 28 -35 20z"/>
<path d="M4611 4179 c-25 -11 -66 -40 -92 -64 l-47 -44 -74 5 c-132 9 -142 11
-233 55 -104 51 -164 57 -230 24 -55 -27 -65 -72 -13 -59 107 27 228 -12 236
-78 5 -45 -111 -118 -187 -118 -37 0 -66 -23 -57 -45 5 -15 16 -17 74 -13 69
5 103 19 287 117 97 52 131 52 245 -1 157 -72 159 -73 255 -73 89 0 194 19
305 55 30 10 68 21 83 25 47 10 35 61 -13 59 -36 -2 -151 -27 -205 -46 -16 -5
-73 -12 -126 -15 -157 -9 -261 51 -214 123 17 27 60 40 162 50 79 7 110 22
100 48 -10 26 -196 23 -256 -5z"/>
<path d="M5785 4136 c-16 -7 -54 -30 -83 -50 -71 -47 -115 -58 -231 -55 -104
3 -121 -2 -121 -30 0 -39 26 -46 174 -46 154 0 171 5 271 76 67 48 103 52 207
24 24 -6 28 -4 34 19 8 34 5 36 -64 58 -67 21 -145 23 -187 4z"/>
<path d="M5863 3951 c-39 -20 -88 -44 -110 -53 -21 -9 -78 -36 -128 -59 -130
-60 -168 -60 -234 5 l-49 48 -96 -11 c-125 -15 -245 -48 -403 -112 -40 -16
-44 -46 -7 -55 17 -4 51 4 105 25 123 49 192 63 281 59 l79 -3 53 -58 c75 -81
85 -80 302 30 145 72 175 84 188 74 35 -29 -57 -126 -225 -237 -54 -36 -99
-72 -99 -80 0 -81 367 151 422 266 57 121 66 171 34 192 -18 13 -38 7 -113
-31z"/>
<path d="M6172 3799 c-133 -12 -159 -27 -272 -160 -99 -117 -248 -237 -297
-239 -4 -1 -26 -9 -48 -20 -81 -39 -97 -29 -217 149 -68 99 -94 96 -391 -43
-107 -50 -168 -59 -220 -31 -39 20 -89 27 -107 15 -32 -23 78 -79 201 -103 53
-10 59 -9 115 20 32 17 92 47 132 68 110 56 140 57 195 6 44 -41 77 -94 77
-124 0 -30 -63 -47 -199 -53 -98 -5 -131 -10 -131 -20 0 -26 42 -34 187 -35
165 -2 227 5 293 31 25 10 74 30 110 43 36 14 102 39 148 57 l83 33 70 -17
c178 -43 269 -24 370 77 70 70 31 89 -57 28 -76 -51 -159 -70 -235 -53 -98 23
-101 41 -21 149 60 80 123 143 145 143 111 1 227 33 227 64 0 13 -33 27 -55
24 -5 0 -52 -4 -103 -9z"/>
<path d="M5795 5520 c-15 -29 -15 -31 10 -56 36 -36 84 -20 85 29 0 61 -67 80
-95 27z"/>
<path d="M3283 5713 c-36 -14 31 -90 190 -219 84 -68 97 -73 117 -49 11 14 6
24 -36 67 -52 54 -240 209 -252 207 -4 0 -13 -3 -19 -6z"/>
<path d="M3379 5082 c-174 -112 -250 -192 -183 -192 39 0 246 158 242 185 -4
26 -26 28 -59 7z"/>
<path d="M7600 2219 c-25 -4 -106 -12 -180 -18 -74 -6 -164 -16 -200 -22 -36
-6 -114 -14 -175 -19 -121 -10 -135 -18 -135 -75 0 -65 -3 -65 394 -65 426 0
416 -2 416 98 0 89 -31 115 -120 101z"/>
<path d="M3194 2206 c-17 -8 -34 -22 -38 -32 -6 -15 -8 -458 -6 -1126 0 -61
163 -86 215 -33 l25 24 0 354 c0 303 2 356 15 360 15 6 17 4 51 -58 11 -22 35
-65 51 -95 17 -30 44 -80 60 -110 17 -30 76 -135 132 -234 55 -98 101 -181
101 -185 0 -4 16 -23 36 -42 l35 -34 113 -3 113 -4 26 32 27 32 0 466 c0 257
4 473 8 480 7 10 176 13 849 12 837 0 840 0 866 21 38 29 39 108 2 145 l-24
24 -945 -2 -945 -3 -23 -23 -23 -23 -1 -349 c0 -193 -4 -353 -8 -357 -13 -13
-54 42 -111 152 -32 61 -67 126 -78 145 -11 19 -32 58 -47 85 -15 28 -54 98
-88 157 -33 58 -63 114 -66 125 -13 36 -63 83 -105 98 -53 18 -175 19 -217 1z"/>
<path d="M6104 2203 c-49 -10 -59 -36 -61 -171 -3 -149 -3 -148 -42 -157 -38
-8 -51 -30 -51 -87 0 -54 6 -62 53 -81 20 -9 37 -22 37 -29 0 -7 2 -116 3
-243 2 -225 3 -231 28 -285 51 -107 127 -152 265 -158 107 -5 130 4 140 53 14
76 -5 108 -74 126 -117 31 -122 42 -122 303 0 240 -2 236 107 236 82 0 97 14
91 87 -6 67 -4 66 -98 74 -43 4 -83 10 -89 14 -7 4 -11 52 -11 130 0 73 -5
135 -12 149 -16 37 -88 54 -164 39z"/>
<path d="M6594 2203 c-61 -12 -59 9 -56 -602 4 -649 -3 -604 103 -609 148 -7
139 -46 139 601 0 354 -4 544 -11 565 -15 45 -86 63 -175 45z"/>
<path d="M4564 1891 c-182 -47 -302 -183 -327 -372 -40 -302 159 -549 442
-549 199 0 410 141 399 267 l-3 38 -97 3 -97 3 -38 -37 c-79 -75 -167 -93
-258 -51 -72 34 -140 140 -103 163 7 5 143 9 302 10 l289 1 25 28 c61 71 -18
315 -131 408 -109 89 -266 123 -403 88z m195 -191 c54 -27 113 -98 109 -130
l-3 -25 -190 0 -190 0 -3 28 c-4 35 43 94 100 124 54 29 125 30 177 3z"/>
<path d="M5505 1904 c-11 -3 -47 -9 -80 -16 -201 -38 -303 -202 -225 -363 40
-82 109 -119 320 -174 114 -29 142 -40 165 -61 29 -27 32 -61 8 -82 -86 -75
-232 -60 -311 32 l-34 40 -82 0 c-96 0 -106 -7 -106 -71 0 -123 193 -239 395
-239 285 0 468 199 366 398 -44 86 -99 117 -308 172 -155 41 -189 57 -199 96
-9 34 34 80 84 88 81 13 138 -3 198 -55 57 -50 70 -55 154 -50 76 4 91 52 40
131 -50 77 -120 118 -248 144 -82 16 -99 17 -137 10z"/>
<path d="M7187 1890 c-506 -127 -409 -920 113 -920 165 0 318 78 385 197 51
91 34 113 -89 113 l-90 0 -41 -38 c-116 -111 -285 -87 -356 50 -37 71 -43 70
300 74 317 4 322 5 335 77 7 39 -25 180 -55 236 -90 174 -300 262 -502 211z
m198 -191 c81 -43 124 -109 95 -144 -18 -22 -352 -22 -370 0 -25 30 32 110
105 148 44 23 122 21 170 -4z"/>
</g>
</svg>
