<?xml version="1.0" standalone="no"?>
<!DOCTYPE svg PUBLIC "-//W3C//DTD SVG 20010904//EN"
 "http://www.w3.org/TR/2001/REC-SVG-20010904/DTD/svg10.dtd">
<svg version="1.0" xmlns="http://www.w3.org/2000/svg"
 width="624pt" height="371pt" viewBox="229 149 624 371"
 preserveAspectRatio="xMidYMid meet">
<metadata>
Created by potrace 1.16, written by Peter Selinger 2001-2019
</metadata>
<g transform="translate(0.000000,680.000000) scale(0.100000,-0.100000)"
fill="#ffffff" stroke="none">
<path d="M5830 5223 c-14 -2 -108 -12 -210 -23 -102 -10 -216 -24 -255 -30
-38 -6 -104 -14 -145 -19 -41 -5 -95 -16 -120 -24 -25 -8 -99 -25 -165 -37
-66 -13 -124 -26 -130 -31 -5 -4 -28 -10 -50 -14 -34 -6 -155 -42 -260 -76
-16 -6 -64 -21 -105 -34 -143 -45 -224 -75 -239 -88 -9 -8 -36 -19 -61 -26
-43 -12 -178 -68 -230 -96 -14 -8 -68 -35 -120 -60 -52 -26 -108 -57 -125 -70
-16 -12 -41 -26 -55 -30 -14 -4 -34 -15 -45 -25 -11 -10 -40 -28 -65 -40 -25
-12 -74 -44 -110 -70 -36 -26 -76 -53 -90 -60 -14 -7 -41 -26 -60 -42 -19 -16
-48 -40 -65 -53 -155 -126 -405 -365 -405 -387 0 -4 -19 -30 -42 -58 -86 -101
-102 -123 -124 -170 -12 -26 -27 -51 -34 -55 -16 -10 -55 -101 -103 -240 l-42
-120 0 -200 c0 -182 2 -207 24 -280 30 -99 90 -228 130 -279 17 -21 31 -42 31
-47 0 -5 17 -26 37 -47 21 -22 43 -46 50 -53 38 -45 213 -190 270 -225 82 -48
222 -124 231 -124 5 0 20 -9 34 -19 23 -18 100 -49 238 -93 36 -11 77 -27 92
-34 14 -8 37 -14 51 -14 14 0 54 -9 89 -20 34 -11 89 -23 120 -26 57 -7 57 -7
63 22 4 16 14 49 22 74 9 25 20 61 24 80 24 110 39 169 49 195 7 17 18 59 25
95 7 36 18 79 23 95 6 17 22 84 37 150 15 66 33 136 40 155 22 62 65 225 65
249 0 12 5 32 12 44 6 12 19 56 29 97 30 134 51 214 64 250 7 19 18 60 24 90
62 289 205 793 248 870 7 14 30 56 49 93 30 54 94 139 152 200 29 30 131 83
210 109 184 60 435 23 540 -79 101 -98 63 -306 -63 -354 -104 -39 -187 -14
-230 71 -30 60 -31 89 -5 132 12 21 20 51 20 80 0 45 -2 49 -39 67 l-39 20
-62 -20 c-41 -14 -65 -29 -71 -43 -6 -12 -23 -30 -39 -41 -16 -11 -33 -29 -39
-40 -42 -89 -73 -170 -86 -225 -8 -36 -31 -126 -51 -200 -39 -146 -42 -169
-22 -181 7 -5 142 -9 300 -9 346 0 324 11 278 -142 -17 -57 -37 -130 -45 -163
-7 -33 -21 -82 -29 -110 -9 -27 -16 -60 -16 -73 0 -12 -9 -40 -20 -62 -11 -22
-20 -54 -20 -72 -1 -18 -8 -51 -16 -73 -9 -22 -20 -62 -26 -90 -27 -139 -49
-192 -80 -200 -13 -3 -81 -4 -153 -3 l-130 3 -3 35 c-2 19 3 49 12 65 9 17 22
62 30 100 21 101 46 195 61 230 8 17 16 48 20 70 3 22 13 61 21 86 8 26 19 69
23 95 5 27 15 64 22 82 22 54 1 63 -153 61 -103 -2 -130 -5 -141 -18 -8 -9
-31 -86 -51 -171 -21 -85 -42 -168 -48 -185 -16 -49 -58 -206 -70 -260 -6 -27
-16 -66 -23 -85 -8 -19 -16 -53 -20 -75 -3 -22 -15 -71 -27 -110 -11 -38 -27
-91 -34 -117 -8 -26 -14 -56 -14 -67 0 -11 -11 -55 -25 -98 -14 -43 -25 -89
-25 -101 0 -13 -7 -38 -15 -55 -8 -18 -21 -61 -28 -97 -23 -103 -48 -203 -57
-225 -15 -34 -60 -222 -60 -248 0 -51 22 -54 425 -63 275 -6 695 22 850 56 22
5 96 19 165 30 69 12 141 26 160 30 19 5 76 18 125 30 50 13 108 26 130 30 36
6 124 33 325 100 36 11 81 25 100 30 19 5 53 18 75 30 21 11 44 20 50 20 5 0
44 14 85 31 41 17 113 47 160 66 46 19 105 45 130 58 25 13 56 28 70 34 23 10
149 78 280 151 75 42 110 64 219 140 51 36 112 77 135 93 22 15 48 36 56 45 8
10 44 43 80 73 36 29 91 77 122 106 31 29 61 53 67 53 6 0 17 13 26 29 8 16
23 32 33 35 11 4 24 16 30 29 7 12 34 49 62 82 126 151 238 340 271 455 7 25
18 54 25 65 31 51 21 599 -12 635 -7 9 -20 36 -29 60 -8 24 -20 49 -26 56 -6
7 -20 31 -32 52 -89 162 -335 377 -563 493 -28 14 -64 33 -80 41 -28 16 -190
80 -249 100 -16 6 -43 16 -60 23 -28 11 -117 35 -270 72 -122 30 -375 69 -570
87 -145 15 -620 21 -695 9z m-1926 -919 c272 -56 398 -239 335 -487 -20 -77
-83 -218 -102 -226 -5 -2 -28 -21 -50 -43 -42 -40 -113 -81 -210 -119 -54 -22
-323 -58 -429 -59 -71 0 -107 -16 -114 -49 -3 -14 -14 -60 -25 -101 -10 -41
-26 -104 -35 -140 -34 -136 -48 -181 -65 -210 l-19 -30 -131 0 c-71 0 -139 5
-150 10 -24 13 -26 66 -3 91 8 9 19 41 23 71 4 29 20 94 35 143 16 50 32 106
36 125 21 88 76 286 110 400 22 69 43 151 49 183 6 32 14 64 18 70 8 11 19 54
61 231 9 41 20 78 25 82 4 4 7 14 7 23 0 28 17 44 56 52 67 13 492 1 578 -17z
m3184 -495 c91 -47 132 -120 118 -213 -9 -55 -89 -192 -124 -210 -15 -8 -36
-23 -46 -35 -11 -12 -28 -21 -38 -21 -10 0 -31 -9 -47 -20 -16 -13 -55 -25
-96 -31 -37 -5 -100 -16 -139 -24 -39 -8 -89 -15 -110 -15 -89 0 -100 -97 -23
-192 60 -75 253 -59 366 30 66 52 85 53 109 5 35 -71 36 -102 2 -121 -16 -9
-30 -20 -30 -24 0 -16 -181 -98 -242 -109 -158 -30 -328 -12 -396 40 -141 111
-177 187 -169 361 4 75 11 122 27 165 29 75 98 193 121 206 10 5 20 17 24 28
15 49 265 201 350 213 123 17 275 2 343 -33z m1047 17 c65 -30 86 -63 93 -142
9 -121 -66 -206 -165 -188 -45 8 -99 58 -109 100 -10 44 -32 74 -55 74 -45 0
-169 -84 -169 -115 0 -7 -9 -20 -20 -30 -10 -9 -24 -34 -31 -54 -6 -20 -17
-45 -24 -57 -7 -11 -20 -43 -28 -71 -8 -28 -20 -59 -25 -69 -5 -11 -14 -41
-19 -69 -10 -50 -46 -183 -65 -240 -5 -16 -14 -46 -18 -65 -14 -55 -29 -60
-171 -60 -159 0 -189 22 -145 108 7 15 17 47 21 72 4 25 14 63 22 85 8 22 21
67 28 100 24 106 64 249 78 285 8 19 20 64 27 100 6 35 18 77 26 92 8 15 17
48 20 72 10 70 20 74 172 77 157 3 178 -9 137 -81 -14 -24 -20 -70 -10 -70 11
0 91 56 110 77 73 81 225 114 320 69z m-1862 -17 c20 -32 -30 -127 -105 -200
-21 -20 -38 -40 -38 -45 0 -5 -104 -111 -231 -237 -200 -198 -230 -232 -227
-255 l3 -27 210 -2 c116 -1 216 -2 222 -2 30 -2 46 -49 29 -85 -9 -19 -16 -43
-16 -55 0 -12 -9 -30 -20 -41 -19 -19 -33 -20 -405 -20 -372 0 -386 1 -405 20
-26 26 -25 34 5 95 13 28 25 53 25 56 0 12 64 113 106 169 46 60 182 201 343
354 l105 99 -23 18 c-21 17 -42 19 -193 19 -182 0 -208 6 -208 46 0 19 30 94
43 106 5 5 724 12 746 7 14 -3 29 -12 34 -20z"/>
<path d="M3593 4168 c-24 -11 -73 -134 -73 -181 0 -16 -7 -43 -15 -60 -8 -18
-20 -59 -28 -92 -30 -125 -60 -230 -69 -242 -15 -19 1 -52 28 -59 14 -4 64 -2
111 5 196 25 308 126 357 322 50 201 -3 287 -189 309 -104 11 -94 12 -122 -2z"/>
<path d="M6773 3678 c-27 -6 -44 -16 -48 -28 -3 -10 -21 -30 -39 -43 -40 -31
-116 -154 -116 -188 0 -42 37 -52 118 -33 124 31 197 78 242 157 69 121 9 173
-157 135z"/>
</g>
</svg>
