<?xml version="1.0" standalone="no"?>
<!DOCTYPE svg PUBLIC "-//W3C//DTD SVG 20010904//EN"
 "http://www.w3.org/TR/2001/REC-SVG-20010904/DTD/svg10.dtd">
<svg version="1.0" xmlns="http://www.w3.org/2000/svg"
 width="678pt" height="336pt" viewBox="201 168 678 336"
 preserveAspectRatio="xMidYMid meet">
<metadata>
Created by potrace 1.16, written by Peter Selinger 2001-2019
</metadata>
<g transform="translate(0.000000,680.000000) scale(0.100000,-0.100000)"
fill="#ffffff" stroke="none">
<path d="M5946 5030 c-39 -12 -66 -38 -87 -85 -17 -37 -19 -76 -19 -521 l0
-481 28 -38 c104 -148 179 -185 378 -192 188 -7 184 -10 184 144 0 130 -3 133
-113 133 -174 0 -177 4 -177 254 0 227 -6 216 128 227 120 9 115 6 147 71 56
111 -34 222 -164 204 -74 -11 -112 23 -109 99 4 134 -86 220 -196 185z"/>
<path d="M6960 4759 c-294 -19 -500 -238 -500 -529 0 -85 3 -100 55 -244 18
-48 114 -155 195 -216 121 -90 399 -102 527 -24 21 13 56 33 78 44 22 11 56
41 75 66 19 26 47 60 63 77 63 72 31 97 -125 97 -112 0 -114 0 -167 -34 -108
-70 -264 -59 -339 25 -40 45 -45 66 -22 89 19 19 35 20 360 20 397 0 380 -4
380 98 -1 202 -115 389 -291 475 -110 53 -168 64 -289 56z m111 -260 c87 -29
154 -94 129 -124 -18 -21 -367 -22 -395 -1 -76 55 152 162 266 125z"/>
<path d="M8085 4762 c-160 -7 -321 -126 -406 -301 l-42 -86 -9 -210 c-11 -269
-7 -417 11 -438 21 -26 271 -25 293 1 13 14 16 61 17 287 2 293 3 302 38 353
12 19 23 38 23 42 0 11 113 50 146 50 67 0 137 -35 170 -84 40 -60 43 -86 45
-386 2 -304 -13 -280 165 -280 173 0 161 -19 163 260 3 413 -40 550 -215 689
-108 86 -210 112 -399 103z"/>
<path d="M2181 4733 c-86 -45 -114 -128 -72 -211 37 -75 75 -138 96 -162 13
-14 31 -41 40 -60 10 -19 31 -50 46 -68 16 -18 29 -37 29 -42 0 -5 13 -29 29
-52 88 -132 161 -248 161 -256 0 -5 7 -15 16 -23 8 -7 26 -34 40 -61 30 -60
67 -74 97 -37 31 39 120 178 140 217 11 21 29 48 42 62 12 14 30 40 40 59 9
19 25 43 36 54 10 11 21 33 24 49 15 65 88 62 123 -4 12 -24 48 -80 80 -125
31 -46 71 -106 87 -133 17 -28 43 -68 58 -88 15 -20 35 -51 43 -69 29 -60 79
-56 115 10 40 71 60 103 162 255 53 81 97 150 97 155 0 5 9 21 21 35 61 79
180 276 189 315 17 65 0 117 -53 162 -40 35 -45 37 -104 33 -73 -5 -114 -36
-155 -117 -13 -25 -38 -63 -55 -84 -18 -20 -33 -43 -33 -51 0 -7 -7 -19 -16
-27 -9 -7 -29 -39 -45 -71 -21 -41 -36 -59 -54 -64 -38 -9 -44 -2 -146 174
-15 25 -34 49 -42 53 -8 5 -18 21 -22 36 -6 25 -31 62 -81 117 -11 13 -42 28
-71 35 -87 21 -149 -20 -212 -138 -7 -14 -23 -37 -35 -51 -12 -14 -30 -41 -39
-60 -10 -19 -27 -49 -40 -66 -12 -18 -30 -46 -39 -63 -13 -24 -24 -31 -47 -31
-30 0 -71 32 -71 54 0 6 -17 36 -38 67 -20 31 -45 70 -54 85 -128 209 -180
243 -287 187z"/>
<path d="M4325 4745 c-80 -27 -151 -61 -176 -85 -14 -14 -48 -45 -75 -70 -124
-114 -182 -345 -126 -500 59 -164 62 -169 147 -247 45 -42 97 -81 116 -88 19
-7 61 -23 94 -35 256 -95 588 47 685 293 63 158 63 289 -1 428 -21 47 -39 91
-39 97 0 7 -4 12 -9 12 -5 0 -33 23 -62 50 -30 28 -63 59 -74 70 -12 10 -41
26 -65 35 -25 10 -67 25 -95 36 -62 23 -257 25 -320 4z m241 -270 c178 -74
219 -312 77 -447 -131 -125 -365 -45 -403 137 -25 123 46 273 150 314 38 15
136 13 176 -4z"/>
<path d="M5403 4727 c-119 -42 -213 -136 -250 -249 -21 -63 -22 -87 -24 -403
-1 -246 2 -340 10 -348 21 -21 274 -22 295 -2 14 15 16 54 16 350 l0 334 24
28 c23 27 28 28 135 31 68 2 113 8 119 15 17 21 23 222 7 243 -22 31 -247 31
-332 1z"/>
<path d="M2349 3232 c-199 -2 -239 -5 -250 -18 -13 -16 -17 -1333 -4 -1354 4
-7 1200 -10 3290 -10 l3285 0 15 24 c14 21 16 100 14 669 l-1 645 -25 24 -25
23 -3031 0 c-1668 0 -3138 -1 -3268 -3z m6173 -164 c24 -19 32 -1043 8 -1058
-24 -15 -6263 -13 -6278 2 -13 13 -18 1048 -5 1061 13 14 6258 8 6275 -5z"/>
<path d="M7490 2852 l-24 -20 1 -247 c0 -142 5 -251 11 -257 5 -5 33 -8 63 -6
l54 3 3 250 c3 274 1 280 -53 291 -22 4 -38 0 -55 -14z"/>
<path d="M5450 2760 c-42 -26 -62 -494 -24 -548 35 -50 117 -20 119 44 1 61 6
64 110 64 l94 0 48 41 c102 89 119 212 43 317 -55 76 -86 87 -243 87 -76 0
-143 -2 -147 -5z m273 -131 c23 -13 37 -50 37 -100 0 -52 -64 -104 -119 -95
-38 6 -91 51 -91 77 0 62 24 120 54 129 33 10 89 4 119 -11z"/>
<path d="M6099 2761 c-71 -14 -143 -90 -170 -179 -17 -60 15 -142 82 -208 l50
-49 79 -3 c90 -5 157 19 187 65 17 25 16 28 -11 94 -6 13 0 18 27 23 72 13 73
62 4 160 -66 93 -132 119 -248 97z m116 -113 c15 -7 24 -18 23 -27 -5 -23
-153 -24 -153 -1 0 33 80 51 130 28z m60 -148 l27 -10 -33 -23 c-97 -65 -207
-51 -184 24 7 22 141 28 190 9z"/>
<path d="M6554 2741 c-141 -72 -159 -284 -31 -378 52 -38 52 -38 149 -38 l97
0 55 54 c151 150 71 371 -141 387 -62 5 -74 3 -129 -25z m168 -102 c52 -28 62
-123 17 -174 -41 -47 -115 -43 -158 9 -18 21 -18 104 -2 135 21 38 98 54 143
30z"/>
<path d="M6983 2764 c-25 -11 -32 -82 -31 -309 0 -260 2 -265 69 -265 46 0 59
18 59 83 l0 45 98 4 c90 3 102 6 142 33 102 71 131 200 69 307 -55 92 -114
111 -299 99 -25 -2 -56 -1 -70 2 -14 3 -31 4 -37 1z m284 -136 c10 -10 15 -38
16 -83 2 -86 -29 -121 -97 -111 -81 13 -115 77 -92 172 11 42 136 58 173 22z"/>
<path d="M7798 2760 c-32 -9 -118 -78 -118 -93 0 -6 -7 -18 -16 -28 -9 -10
-18 -43 -21 -76 -8 -82 26 -154 93 -203 119 -85 363 -14 309 90 -19 36 -16 36
-79 5 -74 -36 -105 -39 -143 -16 -37 23 -40 33 -16 56 14 15 30 16 107 11 139
-11 145 -10 166 9 61 55 -35 222 -141 244 -57 13 -102 13 -141 1z m123 -116
c43 -22 31 -39 -31 -42 -95 -6 -126 13 -72 42 35 20 66 20 103 0z"/>
</g>
</svg>
