<?xml version="1.0" standalone="no"?>
<!DOCTYPE svg PUBLIC "-//W3C//DTD SVG 20010904//EN"
 "http://www.w3.org/TR/2001/REC-SVG-20010904/DTD/svg10.dtd">
<svg version="1.0" xmlns="http://www.w3.org/2000/svg"
 width="850pt" height="177pt" viewBox="117 252 850 177"
 preserveAspectRatio="xMidYMid meet">
<metadata>
Created by potrace 1.16, written by Peter Selinger 2001-2019
</metadata>
<g transform="translate(0.000000,680.000000) scale(0.100000,-0.100000)"
fill="#ffffff" stroke="none">
<path d="M1970 4194 c-543 -65 -869 -612 -658 -1104 45 -103 67 -137 144 -219
94 -100 147 -139 269 -199 130 -64 146 -67 325 -66 l165 2 94 42 c269 121 433
302 502 555 41 153 21 367 -49 525 -69 154 -225 314 -372 381 -25 11 -52 24
-62 29 -58 31 -275 64 -358 54z m250 -140 c166 -43 329 -172 406 -323 16 -31
34 -63 40 -71 7 -8 22 -59 34 -113 54 -234 -21 -479 -197 -643 -206 -192 -493
-239 -748 -124 -398 181 -516 701 -238 1045 170 210 439 298 703 229z"/>
<path d="M1912 3959 c-108 -21 -248 -113 -328 -215 -42 -53 -54 -78 -46 -92 9
-13 91 -51 112 -52 21 0 117 -65 165 -111 59 -56 85 -56 100 2 28 106 154 245
283 312 40 20 78 37 85 37 54 0 53 63 -1 76 -15 4 -32 11 -39 16 -40 31 -231
47 -331 27z"/>
<path d="M2383 3805 c-3 -9 -3 -35 0 -58 18 -133 -51 -333 -150 -434 -54 -56
-55 -58 -40 -83 34 -56 236 -122 312 -101 119 32 126 401 12 571 -77 114 -118
146 -134 105z"/>
<path d="M2184 3662 c-93 -68 -155 -166 -180 -282 -24 -118 -11 -124 92 -39
103 84 157 171 178 286 12 69 -24 83 -90 35z"/>
<path d="M1485 3500 c-10 -16 -7 -211 4 -245 48 -152 157 -288 285 -353 108
-55 110 -51 104 156 -4 135 -4 138 -42 212 -47 93 -110 159 -197 205 -67 35
-140 47 -154 25z"/>
<path d="M1996 3224 c-15 -38 -6 -362 10 -378 46 -46 262 11 379 100 57 43 44
64 -57 85 -92 20 -207 92 -269 169 -34 43 -53 50 -63 24z"/>
<path d="M3613 3689 c-33 -10 -60 -47 -117 -161 -47 -95 -65 -87 -144 62 -43
80 -67 100 -120 100 -42 0 -50 -21 -23 -62 11 -18 26 -44 33 -58 7 -14 34 -58
61 -99 82 -126 87 -140 87 -239 0 -96 7 -112 51 -112 56 0 59 5 59 100 0 106
11 140 84 253 31 48 56 89 56 92 0 4 11 23 25 43 30 44 32 68 6 82 -11 5 -21
10 -23 9 -2 0 -17 -5 -35 -10z"/>
<path d="M5082 3681 c-65 -22 -87 -42 -108 -97 -41 -107 39 -201 191 -227 138
-24 191 -120 90 -163 -68 -28 -127 -15 -178 41 -59 65 -137 54 -116 -17 49
-174 392 -163 439 13 31 115 -23 181 -181 224 -127 34 -137 39 -145 70 -21 86
136 114 194 35 17 -23 31 -30 55 -30 102 0 55 115 -63 153 -66 22 -111 21
-178 -2z"/>
<path d="M6650 3691 c-78 -24 -138 -73 -182 -149 -46 -80 -49 -210 -5 -284
126 -210 434 -207 545 6 39 75 38 210 -2 278 -70 120 -230 187 -356 149z m175
-125 c213 -114 42 -456 -174 -346 -141 71 -147 264 -12 344 67 39 116 40 186
2z"/>
<path d="M7420 3694 c-166 -25 -265 -140 -264 -305 0 -230 230 -365 441 -258
59 30 133 104 133 133 -1 58 -89 50 -155 -14 -98 -94 -264 -52 -301 78 -39
132 15 226 151 263 42 12 123 -20 181 -71 51 -44 125 -39 124 9 -1 24 -70 95
-120 124 -34 19 -160 54 -164 46 -1 -1 -12 -3 -26 -5z"/>
<path d="M7892 3682 c-17 -17 -19 -39 -20 -277 -2 -285 -2 -285 59 -285 49 0
54 9 50 99 -1 41 3 86 9 102 l12 29 98 0 c122 0 123 -1 130 -129 l5 -96 45 0
45 0 3 269 c3 288 1 296 -47 296 -43 0 -51 -16 -51 -110 0 -125 -5 -130 -131
-130 -119 0 -119 0 -119 134 0 87 -5 97 -47 110 -15 5 -28 1 -41 -12z"/>
<path d="M3776 3677 c-18 -13 -17 -17 9 -93 50 -142 74 -208 100 -279 14 -38
33 -92 41 -118 19 -59 59 -82 116 -67 42 12 44 16 109 200 76 215 89 252 105
283 22 44 18 76 -10 83 -62 15 -99 -16 -122 -107 -24 -97 -91 -283 -102 -287
-14 -4 -41 48 -63 123 -23 77 -48 152 -64 190 -7 17 -16 40 -19 51 -10 33 -68
45 -100 21z"/>
<path d="M4422 3678 c-20 -20 -17 -544 4 -552 9 -3 98 -6 198 -6 191 0 206 3
206 45 0 40 -17 45 -157 45 -149 0 -153 2 -153 77 0 56 12 63 105 63 85 0 105
8 105 45 0 37 -20 45 -105 45 -96 0 -105 6 -105 75 0 80 0 79 162 85 l143 5 3
28 c6 54 -3 57 -207 57 -132 0 -191 -4 -199 -12z"/>
<path d="M5857 3678 c-16 -12 -17 -38 -15 -283 l3 -270 38 -3 c59 -5 67 8 67
105 0 112 7 123 74 123 64 0 70 -6 125 -122 45 -94 57 -106 115 -110 71 -4 69
12 -21 175 -22 38 -15 66 27 107 45 44 54 71 48 142 -6 61 -58 119 -124 137
-56 16 -316 14 -337 -1z m317 -107 c34 -32 40 -56 26 -92 -15 -36 -57 -49
-157 -49 -89 0 -109 19 -100 97 7 66 24 75 124 71 70 -3 85 -6 107 -27z"/>
<path d="M8548 3679 c-29 -16 -27 -543 1 -559 24 -13 331 -13 364 -1 27 10 39
33 31 55 -10 25 -64 36 -180 36 -126 0 -127 1 -127 68 0 61 17 72 113 72 78 0
100 9 100 41 0 37 -27 48 -111 47 -93 -1 -100 3 -102 69 -3 78 5 83 145 83
135 0 158 7 158 50 0 19 -7 33 -19 40 -26 13 -350 13 -373 -1z"/>
<path d="M9117 3675 c-15 -14 -17 -48 -17 -274 0 -279 0 -281 55 -281 48 0 55
14 55 115 0 107 5 115 75 115 64 0 70 -7 133 -131 l47 -94 49 -3 c73 -5 75 5
23 98 -64 113 -64 111 -18 164 86 99 72 227 -31 283 -49 26 -347 33 -371 8z
m325 -114 c34 -38 35 -62 4 -98 -23 -27 -27 -28 -121 -28 -108 0 -125 9 -125
71 0 83 18 95 135 89 74 -3 82 -5 107 -34z"/>
<path d="M4758 2913 c-59 -7 -68 -28 -68 -163 0 -119 6 -140 41 -140 20 0 29
20 29 65 0 39 20 55 69 55 61 0 43 51 -20 54 -78 4 -62 69 19 74 53 3 84 24
64 44 -12 12 -80 18 -134 11z"/>
<path d="M7128 2900 c-110 -59 -112 -231 -1 -285 87 -42 213 8 213 85 0 15
-41 12 -59 -4 -50 -42 -136 -31 -160 20 -44 98 50 175 145 119 50 -29 83 -20
68 18 -21 56 -138 82 -206 47z"/>
<path d="M5252 2898 c-8 -8 -12 -56 -12 -151 l0 -138 28 3 c25 3 27 7 32 53 5
49 5 50 40 50 35 0 41 -7 69 -77 14 -37 61 -41 61 -5 0 12 -7 31 -15 41 -21
27 -19 63 5 93 30 39 26 79 -12 114 -30 27 -38 29 -108 29 -46 0 -81 -5 -88
-12z m156 -66 c14 -19 -6 -45 -44 -56 -28 -8 -70 24 -61 48 14 36 79 41 105 8z"/>
<path d="M7712 2894 c-21 -14 -22 -22 -22 -145 l0 -129 26 -10 c52 -20 174 -9
174 15 0 17 -23 25 -69 25 -40 0 -61 14 -61 42 0 19 28 38 59 38 11 0 23 5 26
10 11 18 -15 40 -46 40 -18 0 -32 7 -39 21 -18 32 4 49 61 49 52 0 81 24 57
48 -18 18 -139 15 -166 -4z"/>
<path d="M5933 2888 c-6 -7 -20 -39 -31 -70 -12 -32 -31 -82 -42 -111 -36 -96
-10 -134 47 -67 19 23 33 30 60 30 26 0 42 -8 63 -30 60 -64 78 -24 36 83 -13
34 -27 73 -31 86 -22 74 -74 115 -102 79z m65 -148 c-4 -20 -42 -25 -57 -6
-10 12 -8 19 10 37 21 21 22 21 36 3 7 -10 12 -25 11 -34z"/>
<path d="M6445 2878 c-3 -13 -4 -77 -3 -143 3 -109 5 -120 22 -123 30 -6 44
22 38 78 -4 45 -2 50 15 50 19 0 53 -28 53 -43 0 -29 53 -87 79 -87 38 0 41
10 41 150 0 107 -2 120 -19 129 -28 16 -44 -9 -36 -56 4 -26 1 -44 -8 -57 -14
-19 -15 -19 -43 11 -16 17 -41 49 -56 72 -32 48 -74 57 -83 19z"/>
</g>
</svg>
